<?xml version="1.0" encoding="utf-8"?>
<!-- Generator: Adobe Illustrator 25.4.1, SVG Export Plug-In . SVG Version: 6.00 Build 0)  -->
<svg version="1.1" id="Layer_1" xmlns="http://www.w3.org/2000/svg" xmlns:xlink="http://www.w3.org/1999/xlink" x="0px" y="0px"
	 viewBox="0 0 1074.4 584.2" style="enable-background:new 0 0 1074.4 584.2;" xml:space="preserve">
<style type="text/css">
	.st0{fill:#F2F2F2;}
	.st1{fill:#86BA90;}
	.st2{fill:#E87458;}
	.st3{fill:none;stroke:#3F3D56;stroke-miterlimit:10;}
	.st4{fill:#3F3D56;}
	.st5{fill:#8F5A39;}
	.st6{fill:#2F2E41;}
	.st7{fill:#FFFFFF;}
	.st8{opacity:0.3;fill:#F0643B;enable-background:new    ;}
	.st9{fill:#A35F1A;}
	.st10{fill:#3B2200;}
	.st11{fill:url(#SVGID_1_);}
	.st12{fill:#734C00;}
	.st13{fill:url(#SVGID_00000116225511935219414350000013067523004949005205_);}
	.st14{opacity:0.54;}
	.st15{fill:#BDAA75;}
	.st16{fill:url(#SVGID_00000098201589421206095980000003863590237958322816_);}
	
		.st17{fill:url(#SVGID_00000034065373695903629410000008462622736031002016_);stroke:#705834;stroke-width:0.9308;stroke-linecap:round;stroke-linejoin:round;}
	.st18{fill:#875A00;}
	.st19{fill:#634B28;}
	.st20{fill:#D1B200;}
	.st21{opacity:0.58;}
	.st22{fill:#85693D;}
	.st23{fill:#E8D6BE;}
	.st24{opacity:0.49;fill:#D4AC76;}
</style>
<ellipse class="st0" cx="540.6" cy="549.3" rx="527.5" ry="34.9"/>
<path class="st1" d="M520.4,167c-85.9,0-147.7,55.1-147.7,183.8c0,145.8,61.7,184.4,147.7,184.4s151.3-42.3,151.3-184.4
	C671.8,198.9,606.4,167,520.4,167L520.4,167z M521,486.8c-59.5,0-90.6-34.9-90.6-135.9c0-89.1,32.4-136.1,91.9-136.1
	s91.9,30.9,91.9,136.1C614.2,449.3,580.5,486.8,521,486.8z"/>
<path class="st2" d="M321.3,433.5h-35.5V328.9c0-11.6-9.4-21-21-21h-8.3c-11.6,0-21,9.4-21,21v104.6H135.3c-6.6,0-12-5.4-12-12
	c0-1.9,0.5-3.9,1.4-5.6l106.1-200.8c5.4-10.2,1.5-22.9-8.7-28.3c-0.3-0.1-0.6-0.3-0.8-0.4l-6.3-3c-10.1-4.8-22.2-0.8-27.4,9.1
	l-129.4,242c-2.2,4.1-3.4,8.7-3.4,13.4c0,15.7,12.7,28.4,28.4,28.4h152.3v66.2c0,13.9,11.2,25.1,25.1,25.1s25.1-11.2,25.1-25.1
	v-66.2h35.5c11.8,0,21.4-9.6,21.4-21.4S333.2,433.5,321.3,433.5L321.3,433.5z M979.3,433.5h-35.5V328.9c0-11.6-9.4-21-21-21h-8.3
	c-11.6,0-21,9.4-21,21v104.6H793.3c-6.6,0-12-5.4-12-12c0-1.9,0.5-3.9,1.4-5.6l106.1-200.8c5.4-10.2,1.5-22.9-8.7-28.3
	c-0.3-0.1-0.6-0.3-0.8-0.4l-6.3-3c-10.1-4.8-22.2-0.8-27.4,9.1l-129.4,242c-2.2,4.1-3.4,8.7-3.4,13.4c0,15.7,12.7,28.4,28.4,28.4
	h152.3v66.2c0,13.9,11.2,25.1,25.1,25.1c13.9,0,25.1-11.2,25.1-25.1v-66.2h35.5c11.8,0,21.4-9.6,21.4-21.4S991.2,433.5,979.3,433.5
	L979.3,433.5z"/>
<path class="st3" d="M331.1,421.3h-35.5V316.6c0-11.6-9.4-21-21-21h-8.3c-11.6,0-21,9.4-21,21v104.6H145.1c-6.6,0-12-5.4-12-12
	c0-1.9,0.5-3.9,1.4-5.6l106.1-200.8c5.4-10.2,1.5-22.9-8.7-28.3c-0.3-0.1-0.6-0.3-0.8-0.4l-6.3-3c-10.1-4.8-22.2-0.8-27.4,9.1
	L68,422.3c-2.2,4.1-3.4,8.7-3.4,13.4c0,15.7,12.7,28.4,28.4,28.4h152.3v66.2c0,13.9,11.2,25.1,25.1,25.1s25.1-11.2,25.1-25.1v-66.2
	H331c11.8,0,21.4-9.6,21.4-21.4S343,421.3,331.1,421.3z M997.7,421.3h-35.5V316.6c0-11.6-9.4-21-21-21h-8.3c-11.6,0-21,9.4-21,21
	v104.6H811.7c-6.6,0-12-5.4-12-12c0-1.9,0.5-3.9,1.4-5.6l106.1-200.8c5.4-10.2,1.5-22.9-8.7-28.3c-0.3-0.1-0.6-0.3-0.8-0.4l-6.3-3
	c-10.1-4.8-22.2-0.8-27.4,9.1l-129.4,242c-2.2,4.1-3.4,8.7-3.4,13.4c0,15.7,12.7,28.4,28.4,28.4h152.3v66.2
	c0,13.9,11.2,25.1,25.1,25.1c13.9,0,25.1-11.2,25.1-25.1V464h35.5c11.8,0,21.4-9.6,21.4-21.4S1009.5,421.3,997.7,421.3L997.7,421.3z
	 M540,156c-85.9,0-147.6,55.1-147.6,183.8c0,145.8,61.7,184.4,147.6,184.4s151.3-42.3,151.3-184.4C691.4,187.8,626,156,540,156z
	 M540.6,475.8c-59.5,0-90.6-34.9-90.6-135.9c0-89.1,32.4-136.1,91.9-136.1s91.9,30.9,91.9,136.1
	C633.8,438.3,600.1,475.8,540.6,475.8z"/>
<path class="st4" d="M576.2,184.2c-0.8,3.2-4.1,5.8-7.8,7.5c-7.8,3.8-17.4,4.9-26.8,5.3c-2.4,0.1-4.8,0.1-7.1-0.1
	c-4.6-0.4-8.9-2.4-12.2-5.6c-0.8-0.5-1-1.5-0.5-2.3c0.1-0.2,0.3-0.4,0.5-0.5c5-5.5,13.3-8.8,21.6-11.2c6.3-1.8,17.4-6.6,24.3-5.9
	C574.9,171.9,577.2,180.2,576.2,184.2z"/>
<path class="st5" d="M576.2,184.2c-0.8,3.2-4.1,5.8-7.8,7.5c-7.8,3.8-17.4,4.9-26.8,5.3c-2.4,0.1-4.8,0.1-7.1-0.1
	c-4.6-0.4-8.9-2.4-12.2-5.6c-0.8-0.5-1-1.5-0.5-2.3c0.1-0.2,0.3-0.4,0.5-0.5c5-5.5,13.3-8.8,21.6-11.2c6.3-1.8,17.4-6.6,24.3-5.9
	C574.9,171.9,577.2,180.2,576.2,184.2z"/>
<path class="st1" d="M1006.9,419.5c10.8,3.9,22.7-1.6,26.7-12.4c3.9-10.8-1.6-22.7-12.4-26.7c-3.7-1.3-7.6-1.6-11.5-0.8l0.5,10.7
	l-5.1-9.2c-5,2.3-8.8,6.6-10.7,11.7c-0.7,1.8-1.1,3.7-1.2,5.6C992.6,407.8,998.1,416.4,1006.9,419.5L1006.9,419.5z"/>
<path class="st3" d="M1031.9,543.8c-1.8-9.1,6-17.2,13.6-22.4s16.6-10.4,19.2-19.3c3.8-12.8-7.4-24.5-16.1-34.6
	c-6.5-7.5-12-15.7-16.5-24.6c-1.8-3.5-3.5-7.2-4-11.2c-0.7-5.7,1.1-11.3,3-16.7c6.1-18,12.7-35.9,19.6-53.6 M1007.7,416.8
	c10.8,3.9,22.7-1.6,26.7-12.4c3.9-10.8-1.6-22.7-12.4-26.7c-3.7-1.3-7.6-1.6-11.5-0.8l0.5,10.7l-5.1-9.2c-5,2.3-8.8,6.6-10.7,11.7
	c-0.7,1.8-1.1,3.7-1.2,5.6C993.4,405,999,413.6,1007.7,416.8L1007.7,416.8z"/>
<path class="st1" d="M1029.4,357.6c2.4-6.7,8.1-11.6,15-13.2l1.7,10.2l3.2-10.7c11.5,0.2,20.7,9.6,20.5,21.1s-9.6,20.7-21.1,20.5
	s-20.7-9.6-20.5-21.1C1028.2,362.1,1028.6,359.8,1029.4,357.6L1029.4,357.6z"/>
<path class="st3" d="M1030.5,353.9c2.4-6.7,8.1-11.6,15-13.2l1.7,10.2l3.2-10.7c11.5,0.2,20.7,9.6,20.5,21.1s-9.6,20.7-21.1,20.5
	s-20.7-9.6-20.5-21.1C1029.3,358.4,1029.8,356.1,1030.5,353.9L1030.5,353.9z"/>
<path class="st1" d="M1045,467.6c10.8,3.9,22.7-1.7,26.7-12.5c3.3-9.1-0.1-19.3-8.2-24.6l-2.4,8.2l-1.7-10.3h-0.1
	c-10.8-4-22.7,1.6-26.7,12.4S1034.2,463.5,1045,467.6C1044.9,467.6,1044.9,467.6,1045,467.6L1045,467.6z"/>
<path class="st3" d="M1046,463.9c10.8,3.9,22.7-1.7,26.7-12.5c3.3-9.1-0.1-19.3-8.2-24.6l-2.4,8.2l-1.7-10.3h-0.1
	c-10.8-3.9-22.7,1.7-26.7,12.5S1035.2,460,1046,463.9L1046,463.9z"/>
<path class="st1" d="M1023.3,502.2c2,11.3,12.8,18.9,24.1,16.9s18.9-12.8,16.9-24.1s-12.8-18.9-24.1-16.9c-5.1,0.9-9.7,3.7-12.9,7.8
	l9.3,14l-12.7-7.4C1023,495.6,1022.7,498.9,1023.3,502.2L1023.3,502.2z"/>
<path class="st3" d="M1024.2,499.4c2,11.3,12.8,18.9,24.1,16.9s18.9-12.8,16.9-24.1s-12.8-18.9-24.1-16.9c-5.1,0.9-9.7,3.7-12.9,7.8
	l9.3,14l-12.7-7.4C1023.8,492.8,1023.6,496.2,1024.2,499.4L1024.2,499.4z"/>
<path class="st1" d="M9,470.2c7.1,2.6,14.9-1.1,17.5-8.2s-1.1-14.9-8.2-17.5c-2.4-0.9-5-1.1-7.5-0.5l0.3,7l-3.3-6
	c-3.3,1.5-5.8,4.3-7,7.7c-0.4,1.2-0.7,2.4-0.8,3.7C-0.4,462.5,3.3,468.2,9,470.2z"/>
<path class="st3" d="M25.5,551.9c-1.2-6,3.9-11.3,8.9-14.7s10.9-6.8,12.6-12.7c2.5-8.4-4.9-16.1-10.6-22.8
	c-4.2-4.9-7.9-10.3-10.9-16.1c-1.3-2.3-2.2-4.8-2.6-7.3c-0.5-3.7,0.7-7.4,2-11c4-11.8,8.3-23.6,12.9-35.2 M9.6,468.4
	c7.1,2.6,14.9-1.1,17.5-8.2s-1.1-14.9-8.2-17.5c-2.4-0.9-5-1.1-7.5-0.5l0.3,7l-3.3-6c-3.3,1.5-5.8,4.3-7,7.7
	c-0.4,1.2-0.7,2.4-0.8,3.7C0.2,460.7,3.8,466.4,9.6,468.4z"/>
<path class="st1" d="M23.8,429.5c1.6-4.4,5.3-7.6,9.8-8.7l1.1,6.7l2.1-7c7.6,0.1,13.6,6.3,13.5,13.9S44,448,36.5,447.9
	S22.9,441.6,23,434C23,432.5,23.3,431,23.8,429.5z"/>
<path class="st3" d="M24.6,427.1c1.6-4.4,5.3-7.6,9.8-8.7l1.1,6.7l2.1-7c7.6,0.1,13.6,6.3,13.5,13.9s-6.3,13.6-13.9,13.5
	s-13.6-6.3-13.5-13.9C23.8,430.1,24,428.6,24.6,427.1z"/>
<path class="st1" d="M34.1,501.8c7.1,2.6,14.9-1.1,17.5-8.2c2.2-6-0.1-12.7-5.4-16.1l-1.6,5.4l-1.1-6.8c-7.1-2.6-14.9,1.1-17.5,8.2
	C23.3,491.4,27,499.2,34.1,501.8z"/>
<path class="st3" d="M34.7,499.4c7.1,2.6,14.9-1.1,17.5-8.2c2.2-6-0.1-12.7-5.4-16.1l-1.6,5.4l-1.1-6.8c-7.1-2.6-14.9,1.1-17.5,8.2
	C23.9,489,27.6,496.8,34.7,499.4z"/>
<path class="st1" d="M19.8,524.5c1.3,7.4,8.4,12.4,15.8,11.1c7.4-1.3,12.4-8.4,11.1-15.8s-8.4-12.4-15.8-11.1
	c-3.4,0.6-6.4,2.4-8.5,5.1l6.1,9.2l-8.3-4.9C19.6,520.2,19.4,522.4,19.8,524.5z"/>
<path class="st3" d="M20.4,522.7c1.3,7.4,8.4,12.4,15.8,11.1c7.4-1.3,12.4-8.4,11.1-15.8c-1.3-7.4-8.4-12.4-15.8-11.1
	c-3.4,0.6-6.4,2.4-8.5,5.1l6.1,9.2l-8.3-4.9C20.1,518.4,20,520.6,20.4,522.7z"/>
<ellipse class="st6" cx="480.9" cy="319.1" rx="17" ry="22"/>
<ellipse class="st6" cx="573.4" cy="319.6" rx="17" ry="22"/>
<path class="st6" d="M560.4,384.6c0,9.9-13.9,18-31,18s-31-8.1-31-18c0-8.6,10.4-15.8,24.3-17.6c2.2-0.3,4.4-0.4,6.7-0.4
	c3.7,0,7.5,0.4,11.1,1.2C552.2,370.4,560.4,377,560.4,384.6z"/>
<ellipse class="st3" cx="484.9" cy="314.1" rx="17" ry="22"/>
<ellipse class="st3" cx="577.4" cy="314.6" rx="17" ry="22"/>
<ellipse class="st3" cx="533.4" cy="379.6" rx="31" ry="18"/>
<path class="st7" d="M540.9,369.3c0,1.3-0.5,2.5-1.3,3.4s-2,1.4-3.2,1.4h-10c-2.6-0.1-4.6-2.2-4.5-4.8c0-1,0.3-1.9,0.8-2.7
	c2.2-0.3,4.4-0.5,6.7-0.5c3.7,0,7.5,0.4,11.1,1.3C540.8,368,540.9,368.7,540.9,369.3L540.9,369.3z"/>
<circle class="st7" cx="484.9" cy="308.1" r="5"/>
<circle class="st7" cx="577.9" cy="308.1" r="5"/>
<circle class="st8" cx="582.9" cy="355.1" r="5"/>
<circle class="st8" cx="460.9" cy="355.1" r="5"/>
<g>
	<path class="st9" d="M834.2,441.8c5,6.5-2,15.3-8.3,8.9C820.3,445,828.7,434.6,834.2,441.8z"/>
	<path class="st10" d="M743,424.4c0,0-9.6,9.4-3.2,20.9c6.4,11.5-3.7,9.9-5.9,4.6C731.7,444.4,729.6,431.6,743,424.4z"/>
	<path class="st10" d="M747.8,534.9c-0.3,7-3.2,15.5-5.6,19c-2.4,3.5,2.7,4.6,7.2,4.6c4.5,0,5.4-3.7,3.7-5.9
		c-1.6-2.1-6.4-0.5-6.4-0.5s8.8-6.2,10.4-15C758.8,528.2,747.8,534.9,747.8,534.9z"/>
	<path class="st10" d="M796.2,528.5c-0.5,4.3-2.7,12.8-2.9,16.1c-0.3,3.2-2.4,8.6,1.1,10.2c3.5,1.6,7.5,0.8,8-2.7
		c0.5-3.5-5.6-1.6-5.6-1.6s1.3-5.6,4-10.7c2.7-5.1,4.3-13.6,3.2-16.6C802.9,520.2,796.2,528.5,796.2,528.5z"/>
	<g>
		<g>
			<radialGradient id="SVGID_1_" cx="762.8625" cy="489.6329" r="53.1922" gradientUnits="userSpaceOnUse">
				<stop  offset="0" style="stop-color:#DFA06E"/>
				<stop  offset="1" style="stop-color:#E09500"/>
			</radialGradient>
			<path class="st11" d="M758.3,540.4c-11.2,0-20.2-2.7-26.7-8.2c-16.4-13.5-25.9-32.6-24.1-48.5c2-17.8,11.1-27,24.1-35.3
				c9.3-5.9,22.6-9.5,34.8-9.5c2.2,0,4.3,0.1,6.3,0.3c14.5,1.6,23.3,5.4,32.5,14.1c9.2,8.6,13.9,40.7,13.1,51.6
				c-0.9,11.1-11.9,25.5-28.8,30.3C777.3,538.7,767.1,540.4,758.3,540.4z"/>
			<path class="st12" d="M766.5,439.6c2.1,0,4.2,0.1,6.2,0.3c14.5,1.6,23,5.4,32.1,13.9c9.1,8.6,13.6,40.7,12.8,51.1
				c-0.8,10.4-11.2,24.9-28.4,29.7c-9,2.5-20.2,5.1-31,5.1c-9.7,0-19.1-2.1-26.3-8c-15.3-12.6-25.7-31.3-23.8-47.9
				c1.9-16.6,9.9-26,23.8-34.8C740.6,443.5,753.8,439.6,766.5,439.6L766.5,439.6z M766.5,438.2L766.5,438.2
				c-12.3,0-25.8,3.7-35.2,9.6c-13.2,8.4-22.4,17.6-24.4,35.8c-1.8,16.1,7.7,35.4,24.3,49.1c6.7,5.5,15.8,8.3,27.2,8.3
				c8.8,0,19.1-1.7,31.3-5.1c17.2-4.8,28.5-19.5,29.3-30.9c0.8-11-4-43.4-13.3-52.2c-9.3-8.8-18.2-12.6-32.9-14.3
				C770.8,438.4,768.6,438.2,766.5,438.2L766.5,438.2z"/>
		</g>
	</g>
	
		<radialGradient id="SVGID_00000152238336063233701160000012259042752525224585_" cx="740.5119" cy="2383.9749" r="32.9241" gradientTransform="matrix(1 0 0 0.8172 0 -1444.12)" gradientUnits="userSpaceOnUse">
		<stop  offset="0" style="stop-color:#F5DFC2"/>
		<stop  offset="1" style="stop-color:#E0C5A8"/>
	</radialGradient>
	<path style="fill:url(#SVGID_00000152238336063233701160000012259042752525224585_);" d="M716,485.1c5.9-2.5,17.4-8,36.1,2.9
		c18.7,11,17.1,14.2,23,23.8c5.9,9.6,7,17.7,7,17.7s1.1,8.3-11.8,9.1c-12.8,0.8-29.2,3.5-43.1-11.8C713.3,511.6,701,491.5,716,485.1
		z"/>
	<g>
		<g class="st14">
			<path class="st15" d="M804.8,453.8c-9.1-8.6-17.7-12.3-32.1-13.9c-2.3-0.3-4.7-0.3-7-0.3c0.4,0,0.8,0.1,1.2,0.1
				c13.2,1.4,21,4.7,29.3,12.1c8.3,7.5,12.5,35.4,11.7,44.5c-0.7,9.1-10.3,21.7-25.9,25.9c-15.6,4.2-38.3,8.4-52.3-2.6
				c-11.7-9.2-20.2-22.2-21.7-34.6c-1.3,16.3,9,34.4,23.9,46.7c15.3,12.6,40.1,7.8,57.3,2.9c17.1-4.8,27.6-19.3,28.4-29.7
				C818.5,494.5,813.9,462.4,804.8,453.8z"/>
		</g>
	</g>
	<g>
		<g class="st14">
			<path class="st15" d="M816.5,510.2c0.6-1.8,1-3.6,1.1-5.3c0.8-10.4-3.7-42.6-12.8-51.1c-4.4-4.1-8.7-7.1-13.5-9.3
				c-11,9.8-22,24.6-21.1,35.8C771.3,496.1,783.2,515,816.5,510.2z"/>
		</g>
	</g>
	<path class="st9" d="M788,455.6c-8.6,1.2-10.7-10.1-4.4-14c2.5,1.7,12.4,2.1,12.1,6.4c-0.1,1.9-9.1,6.6-10.8,8.2L788,455.6z"/>
	<g>
		<g>
			
				<radialGradient id="SVGID_00000103946345587629233390000013299867911494654396_" cx="808.6354" cy="472.3306" r="33.1289" gradientUnits="userSpaceOnUse">
				<stop  offset="0" style="stop-color:#F5B000"/>
				<stop  offset="1" style="stop-color:#E09500"/>
			</radialGradient>
			<path style="fill:url(#SVGID_00000103946345587629233390000013299867911494654396_);" d="M804.1,503.5c-1.2,0-2.4-0.1-3.5-0.3
				c-12.6-2.2-26.4-12.2-27-28.7c-0.6-16,12.9-29.4,32.7-32.5c2-0.3,5.2-0.7,8.9-0.7c6.9,0,16.1,1.4,20.4,8.2
				c5.5,8.8,10.2,18.5,7,30.5C839.9,490.5,818.6,503.5,804.1,503.5z"/>
			<path class="st12" d="M815.2,441.9c7.3,0,15.8,1.6,19.8,7.9c5.9,9.4,9.9,18.7,7,30c-2.7,10.4-23.9,23-37.9,23
				c-1.2,0-2.3-0.1-3.3-0.3c-13.6-2.4-26-13.1-26.5-28.1c-0.5-15,12-28.6,32.1-31.8C808.7,442.2,811.8,441.9,815.2,441.9
				L815.2,441.9z M815.2,440.5L815.2,440.5c-3.7,0-7,0.4-9,0.7c-20.1,3.2-33.8,16.9-33.2,33.2c0.6,16.9,14.7,27.1,27.6,29.4
				c1.1,0.2,2.3,0.3,3.6,0.3c14.7,0,36.3-13.2,39.1-24c3.2-12.2-1.5-22.1-7.1-31C831.7,442,822.3,440.5,815.2,440.5L815.2,440.5z"/>
		</g>
	</g>
	<g>
		<g class="st14">
			<path class="st15" d="M835,449.8c-3.9-6.2-12-7.8-19.1-7.9c5,0.6,9.9,2.2,12.6,6c5.3,7.4,8.9,14.8,6.2,23.7
				c-2.6,8.9-24.7,19.9-36.9,18c-11.2-1.8-21.4-9.1-23.4-19.5c-0.2,1.4-0.3,2.8-0.2,4.3c0.5,15,12.8,25.7,26.5,28.1
				c13.6,2.4,38.3-11.5,41.2-22.7C844.9,468.5,840.9,459.2,835,449.8z"/>
		</g>
	</g>
	
		<radialGradient id="SVGID_00000183226272815850258760000004738775148660888231_" cx="817.5217" cy="483.0727" r="23.8946" gradientUnits="userSpaceOnUse">
		<stop  offset="0" style="stop-color:#F5DFC2"/>
		<stop  offset="1" style="stop-color:#E0C5A8"/>
	</radialGradient>
	
		<path style="fill:url(#SVGID_00000183226272815850258760000004738775148660888231_);stroke:#705834;stroke-width:0.9308;stroke-linecap:round;stroke-linejoin:round;" d="
		M817.9,462.1c6.9-1.2,19.8-1.9,23.8,8.6c4,10.4,1.9,25.2-14.2,30.8c-16.1,5.6-34,5.4-35.9-12.3C789.8,471.5,807.2,464,817.9,462.1z
		"/>
	<path class="st10" d="M808,473.9c0.5,5.2,10.2,5.6,17.1,4.3c7-1.3,10.7-4,8.8-10.4c-1.9-6.4-10.7-5.6-15.8-4.5
		C813.1,464.3,807.5,468.3,808,473.9z"/>
	<path class="st18" d="M814.4,478.2c0,0-1.6-5.9,1.6-5.4C819.3,473.4,814.4,478.2,814.4,478.2z"/>
	<path class="st18" d="M832.1,475c0,0,0.3-5.4-2.1-4.3C827.6,471.7,832.1,475,832.1,475z"/>
	<path class="st10" d="M792.2,463.2c0-1.3,1.1-2.4,2.4-2.4s2.4,1.1,2.4,2.4c0,1.3-1.1,2.4-2.4,2.4S792.2,464.5,792.2,463.2z"/>
	<path class="st10" d="M829.4,455.7c0-1,0.8-1.9,1.9-1.9c1,0,1.9,0.8,1.9,1.9c0,1-0.8,1.9-1.9,1.9
		C830.3,457.6,829.4,456.7,829.4,455.7z"/>
	<path class="st10" d="M796.5,445c0,0-6.4-5.1-10.4-5.4c-4-0.3-6.2,2.1-7.8,5.1c-1.6,2.9-2.9,6.4-2.9,6.4s-6.4,0.3-7.8,2.7
		c-1.3,2.4,1.1,7,1.3,9.6c0.3,2.7-1.6,7-3.7,10.2c-2.1,3.2,1.6,7.2,5.6,9.1c4,1.9,9.1-0.3,12.6-2.4c3.5-2.1,5.9-6.7,4.5-11.5
		c-1.3-4.8-5.9-26-2.1-26.8c3.7-0.8,8,4,8,4L796.5,445z"/>
	<path class="st10" d="M824.1,442.3c0,0,4.3-6.2,6.7-4.8c2.4,1.3,8.6,0.3,9.4,4.8c0.8,4.6,2.1,8.8,5.1,12.3c2.9,3.5,7.8,7,7.5,10.2
		c-0.3,3.2-2.1,8.3-5.1,9.4c-2.9,1.1-4,0-4-2.4s-1.9-11.2-4-14.5c-2.1-3.2-5.9-17.9-9.1-17.4c-3.2,0.5-3.7,3.5-3.7,3.5L824.1,442.3z
		"/>
	<path class="st19" d="M821.9,496.8c-0.1,0-0.2,0-0.2,0c-0.4-0.1-0.6-0.5-0.5-0.9c1.5-4.6,1-17.3,1-17.4c0-0.4,0.3-0.7,0.7-0.8
		c0.4,0,0.7,0.3,0.8,0.7c0,0.5,0.5,13-1.1,17.9C822.5,496.6,822.2,496.8,821.9,496.8z"/>
	<path class="st19" d="M815.5,498.4c-0.3,0-0.5-0.2-0.7-0.4c-0.2-0.4,0-0.8,0.4-1c0.3-0.1,7.4-3.4,11.4-0.5c0.3,0.2,0.4,0.7,0.2,1
		c-0.2,0.3-0.7,0.4-1,0.2c-3.4-2.4-9.9,0.6-10,0.6C815.7,498.4,815.6,498.4,815.5,498.4z"/>
	<g>
		<path class="st20" d="M708.5,511.7c-0.2,0-0.5-0.1-0.6-0.4c-0.2-0.3,0-0.7,0.3-0.9c0.7-0.4,1.6-0.6,2.4-0.6c0.3,0,0.7,0.3,0.7,0.6
			c0,0.4-0.3,0.7-0.6,0.7c-0.7,0-1.3,0.2-1.9,0.5C708.7,511.7,708.6,511.7,708.5,511.7z"/>
		<path class="st20" d="M697.8,518.2c-0.2,0-0.5-0.1-0.6-0.4c-0.2-0.3,0-0.7,0.3-0.9c0.8-0.4,1.6-0.9,2.4-1.4
			c0.8-0.5,1.6-1.1,2.4-1.5c0.3-0.2,0.7,0,0.9,0.3c0.2,0.3,0,0.7-0.3,0.9c-0.8,0.4-1.5,0.9-2.3,1.4c-0.8,0.5-1.6,1.1-2.5,1.5
			C698,518.1,697.9,518.2,697.8,518.2z"/>
		<path class="st20" d="M688.9,527.5c-0.1,0-0.3,0-0.4-0.1c-0.3-0.2-0.3-0.6-0.1-0.9c0.7-0.8,1.5-1.6,2.2-2.4l0.8-0.8
			c0.3-0.3,0.7-0.3,0.9,0c0.3,0.2,0.3,0.7,0,0.9l-0.8,0.8c-0.7,0.8-1.5,1.6-2.1,2.3C689.3,527.5,689.1,527.5,688.9,527.5z"/>
		<path class="st20" d="M682.2,539c-0.1,0-0.2,0-0.3-0.1c-0.3-0.2-0.4-0.6-0.2-0.9l4-6.7c0.2-0.3,0.6-0.4,0.9-0.2
			c0.3,0.2,0.4,0.6,0.2,0.9l-4,6.7C682.7,538.9,682.5,539,682.2,539z"/>
		<path class="st20" d="M680.6,543.3c-0.1,0-0.2,0-0.3-0.1c-0.3-0.2-0.5-0.5-0.3-0.9c0.5-1,1-2,1.3-2.9c0.1-0.3,0.5-0.5,0.8-0.4
			c0.3,0.1,0.5,0.5,0.4,0.8c-0.4,1-0.9,2-1.4,3C681.1,543.2,680.9,543.3,680.6,543.3z"/>
		<path class="st20" d="M677.7,549.2c-0.1,0-0.3,0-0.4-0.1c-0.3-0.2-0.3-0.6-0.1-0.9c0.1-0.1,0.1-0.2,0.1-0.4c0-0.4,0.3-0.7,0.6-0.7
			c0.4,0,0.7,0.3,0.7,0.6c0,0.5-0.1,0.9-0.4,1.2C678.1,549.1,677.9,549.2,677.7,549.2z"/>
		<path class="st20" d="M674.5,560.2c-0.1,0-0.2,0-0.3-0.1c-0.3-0.1-0.5-0.5-0.4-0.9c0.2-0.6,0.3-1.3,0.2-2.1
			c-0.1-0.4,0.2-0.7,0.6-0.7c0.4,0,0.7,0.2,0.7,0.6c0.1,1,0,1.9-0.3,2.8C675,560,674.7,560.2,674.5,560.2z"/>
		<path class="st20" d="M669.9,551.1c-0.3,0-0.6-0.2-0.6-0.5c-0.6-2.4-5.2-5.7-7.7-5.9c-0.4,0-0.6-0.4-0.6-0.7
			c0-0.4,0.4-0.6,0.7-0.6c2.8,0.3,8.1,3.8,8.9,6.9c0.1,0.4-0.1,0.7-0.5,0.8C670,551.1,670,551.1,669.9,551.1z"/>
		<path class="st20" d="M668.3,559.4c-0.2,0-0.4-0.1-0.5-0.2c-2.5-3-10.5-5.6-14.2-5.7c-0.4,0-0.7-0.3-0.6-0.7
			c0-0.4,0.3-0.7,0.7-0.6c4,0.1,12.5,2.9,15.2,6.1c0.2,0.3,0.2,0.7-0.1,0.9C668.6,559.3,668.5,559.4,668.3,559.4z"/>
		<path class="st20" d="M679,560.7c-0.2,0-0.4-0.1-0.6-0.3c-0.2-0.3-0.1-0.7,0.2-0.9c3.8-2.4,6.7-3.9,10.9-4.6
			c0.4-0.1,0.7,0.2,0.8,0.5c0.1,0.4-0.2,0.7-0.5,0.8c-4.1,0.7-6.7,2.1-10.5,4.5C679.3,560.7,679.1,560.7,679,560.7z"/>
		<path class="st20" d="M680.1,557c-0.1,0-0.3,0-0.4-0.1c-0.3-0.2-0.4-0.6-0.2-0.9c0.7-1.1,2-1.9,3.6-2.4c0.3-0.1,0.7,0.1,0.8,0.4
			c0.1,0.3-0.1,0.7-0.4,0.8c-1.3,0.4-2.3,1.1-2.9,1.9C680.5,556.9,680.3,557,680.1,557z"/>
	</g>
	<path class="st10" d="M775.9,525c1.8-2.7,7.5-2.7,8.8,0.3c1.3,2.9,1.1,5.6-0.5,10.7c-1.6,5.1-5.6,9.4-4.3,17.1
		c3.5-3.2,7.2-2.1,7.5,1.1c0.3,3.2-5.1,5.4-9.1,2.1c-4-3.2-3.2-11-2.7-15.3C776.2,536.8,773.5,528.5,775.9,525z"/>
	<path class="st10" d="M718.4,477.9c4,1.7,3.2,11-0.8,12.6c-4,1.6-9.4-3.2-17.4-2.7c-8,0.5-19,9.1-22.2,7.8
		c-3.2-1.3-8.3-6.7-3.2-9.9c5.9-3.7,6.4,5.6,6.4,5.6s10.4-8.6,16.9-10.7C704.4,478.4,713.3,475.8,718.4,477.9z"/>
	<g>
		<g class="st21">
			<path class="st22" d="M767.3,446.9c-1-2.8-2.7-5.3-4.7-7.2c-9.3,0.6-18.6,3.1-25.9,6.7c-1.8,2.1-3.2,4.6-4.2,7.7
				c-3.7,11.5,11.2,16.1,21.1,12C763.6,462.1,769.7,453.3,767.3,446.9z"/>
		</g>
	</g>
	<path class="st23" d="M793.6,463.1c0-0.5,0.4-0.9,0.9-0.9c0.5,0,0.9,0.4,0.9,0.9c0,0.5-0.4,0.9-0.9,0.9
		C794,464,793.6,463.6,793.6,463.1z"/>
	<path class="st23" d="M830.3,455.6c0-0.4,0.4-0.8,0.8-0.8c0.4,0,0.8,0.4,0.8,0.8c0,0.4-0.4,0.8-0.8,0.8
		C830.6,456.4,830.3,456,830.3,455.6z"/>
	<path class="st24" d="M841.7,470.7c-2.8-7.4-10.1-9.2-16.6-9.2c5,0.5,10,2.2,12.2,7c3.7,8.1,1.7,19.4-12.9,23.8
		c-14.4,4.3-30.3,4.1-32.6-8.7c-0.2,1.7-0.3,3.6-0.1,5.6c1.9,17.7,19.8,17.9,35.9,12.3C843.6,495.8,845.8,481.1,841.7,470.7z"/>
</g>
</svg>
