<?xml version="1.0" encoding="utf-8"?>
<!-- Generator: Adobe Illustrator 25.4.1, SVG Export Plug-In . SVG Version: 6.00 Build 0)  -->
<svg version="1.1" id="Layer_1" xmlns="http://www.w3.org/2000/svg" xmlns:xlink="http://www.w3.org/1999/xlink" x="0px" y="0px"
	 viewBox="0 0 1074.4 584.2" style="enable-background:new 0 0 1074.4 584.2;" xml:space="preserve">
<style type="text/css">
	.st0{fill:#F2F2F2;}
	.st1{fill:#86BA90;}
	.st2{fill:#E87458;}
	.st3{fill:none;stroke:#3F3D56;stroke-miterlimit:10;}
	.st4{fill:#3F3D56;}
	.st5{fill:#8F5A39;}
	.st6{fill:#2F2E41;}
	.st7{fill:#FFFFFF;}
	.st8{opacity:0.3;fill:#F0643B;enable-background:new    ;}
	.st9{fill:#B66F29;}
	.st10{fill:#DE2321;}
	.st11{fill:#B31A17;}
	.st12{fill:#1A1A1A;}
	.st13{fill:#F7931E;}
	.st14{fill:#333333;}
	.st15{fill:#CCCCCC;}
	.st16{fill:#D1B200;}
</style>
<ellipse class="st0" cx="540.6" cy="449.3" rx="527.5" ry="34.9"/>
<path class="st1" d="M520.4,67c-85.9,0-147.7,55.1-147.7,183.8c0,145.8,61.7,184.4,147.7,184.4s151.3-42.3,151.3-184.4
	C671.8,98.9,606.4,67,520.4,67z M521,386.8c-59.5,0-90.6-34.9-90.6-135.9c0-89.1,32.4-136.1,91.9-136.1s91.9,30.9,91.9,136.1
	C614.2,349.3,580.5,386.8,521,386.8z"/>
<path class="st2" d="M321.3,333.5h-35.5V228.9c0-11.6-9.4-21-21-21h-8.3c-11.6,0-21,9.4-21,21v104.6H135.3c-6.6,0-12-5.4-12-12
	c0-2,0.5-3.9,1.4-5.6l106.1-200.8c5.4-10.2,1.5-22.9-8.7-28.3c-0.3-0.1-0.5-0.2-0.8-0.4l-6.3-3c-10.1-4.8-22.2-0.8-27.4,9.1
	l-129.4,242c-7.4,13.8-2.3,31,11.5,38.4c4.2,2.2,8.8,3.4,13.5,3.4h152.3v66.2c0,13.9,11.2,25.1,25.1,25.1
	c13.9,0,25.1-11.2,25.1-25.1l0,0v-66.2h35.5c11.8,0,21.4-9.5,21.5-21.3C342.7,343.1,333.1,333.5,321.3,333.5L321.3,333.5z
	 M979.3,333.5h-35.5V228.9c0-11.6-9.4-21-21-21h-8.3c-11.6,0-21,9.4-21,21v104.6H793.3c-6.6,0-12-5.4-12-12c0-2,0.5-3.9,1.4-5.6
	l106.1-200.8c5.4-10.2,1.5-22.9-8.7-28.3c-0.3-0.1-0.5-0.2-0.8-0.4l-6.3-3c-10.1-4.8-22.2-0.8-27.4,9.1l-129.4,242
	c-7.4,13.8-2.3,31,11.5,38.4c4.2,2.2,8.8,3.4,13.5,3.4h152.3v66.2c0,13.9,11.2,25.1,25.1,25.1c13.9,0,25.1-11.2,25.1-25.1l0,0v-66.2
	h35.5c11.8,0,21.4-9.5,21.5-21.4C1000.7,343.1,991.1,333.5,979.3,333.5z"/>
<path class="st3" d="M331.1,321.3h-35.5V216.6c0-11.6-9.4-21-21-21h-8.3c-11.6,0-21,9.4-21,21v104.6H145.1c-6.6,0-12-5.4-12-12
	c0-2,0.5-3.9,1.4-5.6l106.1-200.8c5.4-10.2,1.5-22.9-8.7-28.3c-0.3-0.1-0.5-0.2-0.8-0.4l-6.3-3c-10.1-4.8-22.2-0.8-27.4,9.1
	L68,322.3c-7.4,13.8-2.3,31,11.5,38.4c4.2,2.2,8.8,3.4,13.5,3.4h152.3v66.2c0,13.9,11.2,25.1,25.1,25.1c13.9,0,25.1-11.2,25.1-25.1
	v-66.2H331c11.8,0,21.4-9.5,21.5-21.3C352.5,330.9,342.9,321.3,331.1,321.3L331.1,321.3z M997.7,321.3h-35.5V216.6
	c0-11.6-9.4-21-21-21h-8.3c-11.6,0-21,9.4-21,21v104.6H811.7c-6.6,0-12-5.4-12-12c0-2,0.5-3.9,1.4-5.6l106.1-200.8
	c5.4-10.2,1.5-22.9-8.7-28.3c-0.3-0.1-0.5-0.2-0.8-0.4l-6.3-3c-10.1-4.8-22.2-0.8-27.4,9.1l-129.4,242c-7.4,13.8-2.3,31,11.5,38.4
	c4.2,2.2,8.8,3.4,13.5,3.4h152.3v66.2c0,13.9,11.2,25.1,25.1,25.1c13.9,0,25.1-11.2,25.1-25.1V364h35.5c11.8,0,21.4-9.5,21.4-21.3
	C1019,330.9,1009.5,321.3,997.7,321.3L997.7,321.3z M540,56c-85.9,0-147.6,55.1-147.6,183.8c0,145.8,61.7,184.4,147.6,184.4
	s151.3-42.3,151.3-184.4C691.4,87.8,626,56,540,56z M540.6,375.8c-59.5,0-90.6-34.9-90.6-135.9c0-89.1,32.4-136.1,91.9-136.1
	s91.9,30.9,91.9,136.1C633.8,338.3,600.1,375.8,540.6,375.8z"/>
<path class="st4" d="M576.2,84.2c-0.8,3.2-4.1,5.8-7.8,7.5c-7.8,3.8-17.4,4.9-26.8,5.3c-2.4,0.1-4.7,0.1-7.1-0.1
	c-4.6-0.4-8.9-2.4-12.2-5.6c-0.8-0.5-1-1.5-0.5-2.2c0,0,0,0,0-0.1c0.1-0.2,0.3-0.4,0.5-0.5c5-5.5,13.3-8.8,21.6-11.2
	c6.3-1.8,17.4-6.6,24.3-5.9C574.9,71.9,577.2,80.2,576.2,84.2z"/>
<path class="st5" d="M576.2,84.2c-0.8,3.2-4.1,5.8-7.8,7.5c-7.8,3.8-17.4,4.9-26.8,5.3c-2.4,0.1-4.7,0.1-7.1-0.1
	c-4.6-0.4-8.9-2.4-12.2-5.6c-0.8-0.5-1-1.5-0.5-2.2c0,0,0,0,0-0.1c0.1-0.2,0.3-0.4,0.5-0.5c5-5.5,13.3-8.8,21.6-11.2
	c6.3-1.8,17.4-6.6,24.3-5.9C574.9,71.9,577.2,80.2,576.2,84.2z"/>
<path class="st1" d="M1006.9,319.5c10.9,3.7,22.7-2,26.5-12.9c3.7-10.6-1.7-22.2-12.2-26.2c-3.7-1.3-7.7-1.6-11.5-0.8l0.5,10.7
	l-5.1-9.2c-5,2.3-8.8,6.5-10.7,11.7c-0.7,1.8-1.1,3.7-1.2,5.6C992.5,307.7,998.1,316.3,1006.9,319.5L1006.9,319.5z"/>
<path class="st3" d="M1031.9,443.8c-1.8-9.1,6-17.2,13.6-22.4s16.6-10.4,19.2-19.3c3.8-12.8-7.4-24.5-16.1-34.6
	c-6.5-7.5-12-15.8-16.5-24.6c-1.8-3.5-3.5-7.2-4-11.2c-0.7-5.7,1.1-11.3,3-16.7c6.1-18,12.7-35.9,19.6-53.6 M1007.7,316.8
	c10.9,3.7,22.7-2,26.5-12.9c3.7-10.6-1.7-22.2-12.2-26.2c-3.7-1.3-7.7-1.6-11.5-0.8l0.5,10.7l-5.1-9.2c-5,2.3-8.8,6.5-10.7,11.7
	c-0.7,1.8-1.1,3.7-1.2,5.6C993.4,305,999,313.6,1007.7,316.8L1007.7,316.8z"/>
<path class="st1" d="M1029.4,257.6c2.4-6.7,8.1-11.6,15-13.2l1.7,10.2l3.2-10.7c11.5,0.2,20.7,9.6,20.5,21.1s-9.6,20.7-21.1,20.5
	c-11.5-0.2-20.7-9.6-20.5-21.1C1028.2,262.1,1028.6,259.8,1029.4,257.6L1029.4,257.6z"/>
<path class="st3" d="M1030.5,253.9c2.4-6.7,8.1-11.6,15-13.2l1.7,10.2l3.2-10.7c11.5,0.2,20.7,9.6,20.5,21.1s-9.6,20.7-21.1,20.5
	c-11.5-0.2-20.7-9.6-20.5-21.1C1029.3,258.4,1029.8,256.1,1030.5,253.9L1030.5,253.9z"/>
<path class="st1" d="M1045,367.6c10.8,3.9,22.8-1.7,26.7-12.6c3.3-9.1-0.1-19.3-8.2-24.5l-2.4,8.2l-1.7-10.3h-0.1
	c-10.8-3.9-22.8,1.6-26.8,12.4S1034.2,363.7,1045,367.6L1045,367.6z"/>
<path class="st3" d="M1046,363.9c10.8,3.9,22.8-1.7,26.7-12.6c3.3-9.1-0.1-19.3-8.2-24.5l-2.4,8.2l-1.7-10.3h-0.1
	c-10.8-3.9-22.8,1.6-26.8,12.4S1035.2,360,1046,363.9L1046,363.9z"/>
<path class="st1" d="M1023.3,402.2c2,11.3,12.8,18.9,24.1,16.9s18.9-12.8,16.9-24.1c-2-11.3-12.8-18.9-24.1-16.9
	c-5.1,0.9-9.7,3.7-12.9,7.8l9.3,14l-12.7-7.4C1022.9,395.6,1022.7,399,1023.3,402.2z"/>
<path class="st3" d="M1024.2,399.4c2,11.3,12.8,18.9,24.1,16.9c11.3-2,18.9-12.8,16.9-24.1c-2-11.3-12.8-18.9-24.1-16.9
	c-5.1,0.9-9.7,3.7-12.9,7.8l9.3,14l-12.7-7.4C1023.8,392.8,1023.6,396.2,1024.2,399.4L1024.2,399.4z"/>
<path class="st1" d="M9,370.2c7,2.8,15-0.7,17.7-7.7c2.8-7-0.7-15-7.7-17.7c-0.2-0.1-0.4-0.2-0.7-0.2c-2.4-0.9-5-1.1-7.5-0.5l0.3,7
	l-3.3-6c-3.3,1.5-5.8,4.3-7,7.7c-0.4,1.2-0.7,2.4-0.8,3.7C-0.4,362.5,3.3,368.1,9,370.2z"/>
<path class="st3" d="M25.5,451.9c-1.2-6,3.9-11.3,8.9-14.7s10.9-6.8,12.6-12.7c2.5-8.4-4.9-16.1-10.6-22.8
	c-4.2-4.9-7.9-10.3-10.9-16.1c-1.3-2.3-2.2-4.7-2.6-7.3c-0.5-3.7,0.7-7.4,2-11c4-11.8,8.3-23.6,12.9-35.2 M9.6,368.4
	c7,2.8,15-0.7,17.7-7.7s-0.7-15-7.7-17.7c-0.2-0.1-0.4-0.2-0.7-0.2c-2.4-0.9-5-1.1-7.5-0.5l0.3,7l-3.3-6c-3.3,1.5-5.8,4.3-7,7.7
	c-0.4,1.2-0.7,2.4-0.8,3.7C0.1,360.7,3.8,366.4,9.6,368.4z"/>
<path class="st1" d="M23.8,329.5c1.6-4.4,5.3-7.6,9.8-8.7l1.1,6.7l2.1-7c7.6,0.1,13.7,6.2,13.6,13.8c-0.1,7.6-6.2,13.7-13.8,13.6
	s-13.7-6.2-13.6-13.8c0,0,0-0.1,0-0.1C23,332.5,23.3,330.9,23.8,329.5z"/>
<path class="st3" d="M24.6,327.1c1.6-4.4,5.3-7.6,9.8-8.7l1.1,6.7l2.1-7c7.6,0.1,13.6,6.3,13.5,13.9s-6.3,13.6-13.9,13.5
	c-7.6-0.1-13.6-6.3-13.5-13.9C23.8,330.1,24.1,328.5,24.6,327.1z"/>
<path class="st1" d="M34.1,401.8c7.1,2.6,14.9-1.1,17.5-8.2c2.2-6-0.1-12.7-5.4-16.1l-1.6,5.4l-1.1-6.8c-7.1-2.6-15,1.1-17.6,8.1
	S27,399.2,34.1,401.8L34.1,401.8L34.1,401.8z"/>
<path class="st3" d="M34.7,399.4c7.1,2.6,14.9-1.1,17.5-8.2c2.2-6-0.1-12.7-5.4-16.1l-1.6,5.4l-1.1-6.8c-7.1-2.6-15,1.1-17.6,8.1
	S27.6,396.8,34.7,399.4L34.7,399.4L34.7,399.4z"/>
<path class="st1" d="M19.8,424.5c1.3,7.4,8.4,12.3,15.8,10.9s12.3-8.4,10.9-15.8s-8.4-12.3-15.8-10.9c-3.3,0.6-6.3,2.4-8.3,5.1
	l6.1,9.2l-8.3-4.9C19.6,420.2,19.4,422.4,19.8,424.5z"/>
<path class="st3" d="M20.4,422.7c1.3,7.4,8.4,12.3,15.8,10.9s12.3-8.4,10.9-15.8c-1.3-7.4-8.4-12.3-15.8-10.9
	c-3.3,0.6-6.3,2.4-8.3,5.1l6.1,9.2l-8.3-4.9C20.1,418.4,20,420.6,20.4,422.7z"/>
<ellipse class="st6" cx="480.9" cy="219.1" rx="17" ry="22"/>
<ellipse class="st6" cx="573.4" cy="219.6" rx="17" ry="22"/>
<path class="st6" d="M560.4,284.6c0,9.9-13.9,18-31,18s-31-8.1-31-18c0-8.6,10.4-15.8,24.3-17.6c2.2-0.3,4.5-0.4,6.7-0.4
	c3.7,0,7.5,0.4,11.1,1.2C552.2,270.4,560.4,277,560.4,284.6z"/>
<ellipse class="st3" cx="484.9" cy="214.1" rx="17" ry="22"/>
<ellipse class="st3" cx="577.4" cy="214.6" rx="17" ry="22"/>
<ellipse class="st3" cx="533.4" cy="279.6" rx="31" ry="18"/>
<path class="st7" d="M540.9,269.3c0,1.3-0.5,2.5-1.3,3.4c-0.8,0.9-2,1.4-3.2,1.4h-10c-2.5-0.1-4.6-2.2-4.5-4.7c0,0,0-0.1,0-0.1
	c0-1,0.3-1.9,0.8-2.7c2.2-0.3,4.5-0.5,6.7-0.5c3.7,0,7.5,0.4,11.1,1.3C540.8,268,540.9,268.6,540.9,269.3L540.9,269.3z"/>
<circle class="st7" cx="484.9" cy="208.1" r="5"/>
<circle class="st7" cx="577.9" cy="208.1" r="5"/>
<circle class="st8" cx="582.9" cy="255.1" r="5"/>
<circle class="st8" cx="460.9" cy="255.1" r="5"/>
<path class="st9" d="M422.8,430.5c2.2,8.7,11.4,14.2,11.4,14.2s-4.9-1.3-6.4,0.9s-0.4,5.9,4.1,5.6s9.5-1.8,6.9-5.1
	s-6.1-11.6-6.9-18.6C431.9,427.6,420.5,421.7,422.8,430.5z"/>
<path class="st10" d="M380.7,450.6c1.4,2.7,2.1,5.7,1.9,8.7c-0.1,4.6-3.1,10.4-7.4,9.1c-5.4-1.5-5-5.2-4.2-7
	c0.7-1.5,1.1-3.1,1.1-4.8c-0.1-0.9-0.3-1.8-0.8-2.6L380.7,450.6z"/>
<path class="st11" d="M377.6,451.7c0.9,1.6,1.3,3.5,1.3,5.3c0,2.4-0.8,5.1-1.8,5s0.6-2.9,0.7-5.2c0.1-1.6-0.3-3.3-1-4.8L377.6,451.7
	z"/>
<path class="st9" d="M357,447.7c-1.2,2.6-2,5.2-2.6,8c-0.6,3.4-1.2,6.7-0.7,7.3s8.3,1.7,9.3,5.8s-2.8,8.5-4.9,7.7s-4.4-7-5.2-7
	s0.5,5.6-1.4,6s-8,0.9-9.6-3.2s3.7-5.3,2.8-6.6s-6.8,1.3-8.6-1.8s-1.6-6.6,1.9-8.2s9.9,5.7,10.1,5.2s-0.3-2.3,0.8-6.8
	s4.6-9.8,4.6-9.8L357,447.7z"/>
<path class="st9" d="M399.8,436.4c0,0,13.1,28,14.6,27.5s5.5-4.4,8.1-4s6.5,4.2,5.2,7s-9,0.9-9,3.3s5.7,4.4,4.9,8.1
	s-6.6,7.2-10.3,4.9s-1.6-7.9-3.3-9s-4.1,6.5-7.2,5.1s-5.3-5.2-3.6-8.5s8-3.4,8.1-3.8s-11.1-28.6-11.1-28.6L399.8,436.4z"/>
<path class="st9" d="M433.9,400.1c5.2-0.4,10.4-0.1,15.6,0.9c5.8,1.2,11.1,4.4,12.4,3.4s-0.3-4.6,3.1-7.2s9.4-0.6,10.6,2.5
	s-7.5,6.1-7.2,7.9s6.7-0.6,9.7,3.5c1.7,2.2,1.2,5.3-1,7c-1.1,0.9-2.6,1.2-4,0.9c-4-0.8-4.3-6-5.9-5.6s2.7,8.8-1.5,10.3
	s-7.6-0.5-8.9-4.5s4-5.9,3.2-7.5s-4.9-3-11.2-5c-4.8-1.4-9.8-1.9-14.8-1.4L433.9,400.1z"/>
<path class="st12" d="M421.6,377.6c0,0,10-1.8,15.9-8.5s8.1-13,7.3-13.5s-6.5,3.3-7.1,2.6s5.6-3.9,5.4-13.2s-5.9-12.3-6.5-12.4
	s-0.9,6.9-2.8,7.4s-0.6-7.1-8.9-9.9s-13.6,0.6-13.6,1.4s8,2.8,7.8,3.7s-7-1.3-11.9,6s-1.8,12.5,2.6,16.6s12.8,3.9,12.8,2.7
	s-4.3-2.6-4.3-6.3s6-6.4,9.8-3.1c3.4,2.9,3.6,7,0.8,11.2S415.9,373,415.9,373L421.6,377.6z"/>
<path class="st13" d="M356.9,403.4l13.9-9.3c0,0,0.8-11.9,5.1-18.8c5.3-8.4,16.2-17.9,32.9-9.1c16.9,8.9,26.3,21.5,26.4,38.5
	c0.1,16.4-9.7,34.2-23.7,43.7c-9,6.4-20.8,7.3-30.7,2.4c0,0-9,7-21.2,1.1c-19.5-9.4-24-35.5-24-35.5l14.8-15.5L356.9,403.4z"/>
<path class="st14" d="M393.2,417c0,0,25,4.7,27.8,8.2c2.1,2.6,6.8,18,1.4,24.1c-3.8,4.4-11.3,1.2-12.4-3.3
	c-1.3-5.3,5.7-13.4,4.6-15.7c-1.5-3.1-23.2-10.2-23.2-10.2L393.2,417z"/>
<path d="M372.9,393.2c0,0-9.1-24.3-12.9-26.5c-5-3-17.4,1.3-19.4,5.8c-1.5,2.9-0.3,6.4,2.6,7.9c0.8,0.4,1.6,0.6,2.5,0.6
	c3.7-0.1,10.3-7.7,12.3-6.9s12.8,19.7,12.8,19.7L372.9,393.2z"/>
<path class="st9" d="M384.2,425.3c0,0,10.3-2.8,15.2-12.7c5.8-11.8-1.4-20.5-1.4-20.5s0.3,7.1-3.2,11c-4.7,5.1-8.7,3.4-8.7,3.4
	s5.5-8.1,3.3-14.4c-3.4-9.4-10.3-8.6-10.3-8.6s4.8,4.8,3.7,8.8c-0.6,2-2,3.6-3.8,4.7c0,0-0.4-7.9-4.4-11.1c-6-4.9-10.3-0.4-10.3-0.4
	c2.5-0.1,4.8,1.6,5.4,4c0.6,1.8,0.5,3.8-0.3,5.6l-4.2,5L384.2,425.3z"/>
<path class="st13" d="M380.5,426.5c1.3-0.1,2.6-0.5,3.7-1.3c3.2-1.8,5.3-9.7,0.9-18s-9.6-3.6-12-4.2s1-7.6-4.5-9.3
	c-4.5-1.5-6.6,4.9-6.6,4.9L380.5,426.5z"/>
<path class="st15" d="M357.4,399.9c-2.1,3.3-1.1,7.8,2.2,9.9c3.3,2.1,7.8,1.1,9.9-2.2c2.1-3.3,1.1-7.8-2.2-9.9c0,0,0,0,0,0
	C363.9,395.6,359.5,396.6,357.4,399.9z"/>
<path d="M361.9,402.1c-0.5,0.7-0.3,1.7,0.5,2.2c0.7,0.5,1.7,0.3,2.2-0.5c0.5-0.7,0.3-1.7-0.5-2.2c0,0,0,0,0,0
	C363.4,401.1,362.4,401.3,361.9,402.1z"/>
<path class="st7" d="M361.7,411.4c-3.3,5.2-1.7,12.1,3.5,15.4c5.2,3.3,12.1,1.7,15.4-3.5c3.3-5.2,1.7-12.1-3.5-15.4
	C371.9,404.6,365,406.2,361.7,411.4z"/>
<path d="M368.8,414.7c-0.7,1.2-0.3,2.7,0.9,3.4c1.1,0.7,2.6,0.3,3.3-0.8c0.8-1.1,0.5-2.7-0.7-3.5s-2.7-0.5-3.5,0.7
	C368.9,414.6,368.8,414.7,368.8,414.7z"/>
<path class="st13" d="M356.3,403.2c0,0-0.4-1.4,0.3-1.3c2.7,0.2,11.8,15.7,11.5,20.2c-0.3,6.2-4.3,6.8-4.3,6.8
	c-3.6-3.2-6.4-7-8.4-11.4C352.5,410.8,356.3,403.2,356.3,403.2z"/>
<path d="M323,391.9c-4.9,7.8-2.6,18.1,5.2,23.1c7.8,4.9,18.1,2.6,23.1-5.2s2.6-18.1-5.2-23.1c0,0,0,0-0.1,0
	C338.2,381.8,327.9,384.1,323,391.9z"/>
<path class="st14" d="M338.7,388.4c-1.2,1.3,0.2,4.7,3.3,7.8s6.5,4.5,7.8,3.2s-0.2-4.7-3.3-7.8S340,387.1,338.7,388.4z"/>
<path d="M380.8,450.8c2.2-2.1,4.2-4.5,6-7c4-6.5,2.3-9.5,2.3-9.5s2.2,3.5-1.7,10.5c-1.3,2.3-5.5,6.5-5.5,6.5L380.8,450.8z"/>
<path class="st16" d="M438.7,420.7c-0.6-0.3-1.2-0.5-1.9-0.5c-0.4,0-0.6-0.3-0.6-0.7c0-0.3,0.4-0.6,0.7-0.6c0.8,0,1.7,0.2,2.4,0.6
	c0.3,0.2,0.5,0.6,0.3,0.9c-0.1,0.2-0.3,0.4-0.6,0.4C438.9,420.8,438.8,420.7,438.7,420.7z"/>
<path class="st16" d="M449.4,427.2c-0.9-0.4-1.7-0.9-2.5-1.5c-0.8-0.5-1.5-1-2.3-1.4c-0.3-0.2-0.5-0.6-0.3-0.9
	c0.2-0.3,0.6-0.5,0.9-0.3l0,0c0.8,0.4,1.6,1,2.4,1.5s1.6,1,2.4,1.4c0.3,0.2,0.5,0.6,0.3,0.9c-0.1,0.2-0.3,0.4-0.6,0.4
	C449.6,427.2,449.5,427.2,449.4,427.2z"/>
<path class="st16" d="M458.1,436.3c-0.6-0.7-1.4-1.5-2.1-2.3l-0.8-0.8c-0.3-0.2-0.3-0.6-0.1-0.9c0.2-0.3,0.6-0.3,0.9-0.1
	c0,0,0.1,0.1,0.1,0.1l0.8,0.8c0.7,0.8,1.5,1.6,2.2,2.4c0.2,0.3,0.2,0.7-0.1,0.9c0,0,0,0,0,0c-0.1,0.1-0.3,0.1-0.4,0.1
	C458.4,436.5,458.2,436.5,458.1,436.3z"/>
<path class="st16" d="M464.7,447.8l-4-6.7c-0.2-0.3-0.1-0.7,0.2-0.9c0.3-0.2,0.7-0.1,0.9,0.2l4,6.7c0.2,0.3,0.1,0.7-0.2,0.9
	c0,0,0,0,0,0c-0.1,0.1-0.2,0.1-0.3,0.1C465,448.1,464.8,448,464.7,447.8z"/>
<path class="st16" d="M466.4,451.8c-0.5-1-1-2-1.4-3c-0.1-0.3,0.1-0.7,0.4-0.8c0.3-0.1,0.7,0.1,0.8,0.4c0.4,1,0.8,2,1.3,2.9
	c0.2,0.3,0,0.7-0.3,0.9c0,0,0,0,0,0c-0.1,0.1-0.2,0.1-0.3,0.1C466.6,452.3,466.4,452.2,466.4,451.8z"/>
<path class="st16" d="M469.3,458c-0.3-0.3-0.4-0.8-0.4-1.2c0-0.4,0.3-0.6,0.7-0.6c0.4,0,0.6,0.3,0.6,0.7c0,0.2,0,0.3,0.1,0.4
	c0.2,0.3,0.2,0.7-0.1,0.9c0,0,0,0,0,0c-0.1,0.1-0.3,0.1-0.4,0.1C469.6,458.3,469.4,458.2,469.3,458z"/>
<path class="st16" d="M472.5,468.8c-0.3-0.9-0.4-1.9-0.3-2.8c0-0.4,0.3-0.6,0.7-0.6c0.3,0,0.6,0.2,0.6,0.5c0,0.1,0,0.1,0,0.2
	c-0.1,0.7,0,1.4,0.2,2.1c0.1,0.4-0.1,0.7-0.4,0.9c-0.1,0.1-0.2,0.1-0.3,0.1C472.8,469.2,472.5,469,472.5,468.8z"/>
<path class="st16" d="M477.4,460.2c-0.3-0.1-0.6-0.4-0.5-0.7c0,0,0-0.1,0-0.1c0.8-3.1,6.1-6.6,8.9-6.9c0.4,0,0.7,0.2,0.7,0.6
	c0,0.4-0.2,0.7-0.6,0.7c-2.5,0.2-7.1,3.5-7.7,5.9c0,0.3-0.3,0.5-0.6,0.5H477.4z"/>
<path class="st16" d="M478.7,468.2c-0.3-0.2-0.3-0.6-0.1-0.9c0,0,0,0,0,0c2.7-3.2,11.2-6,15.2-6.1c0.4,0,0.7,0.2,0.7,0.6
	c0,0.4-0.2,0.7-0.6,0.7c-3.7,0.1-11.7,2.7-14.2,5.7c-0.1,0.1-0.3,0.2-0.5,0.2C479,468.5,478.9,468.3,478.7,468.2z"/>
<path class="st16" d="M468.2,469.8c-3.8-2.4-6.4-3.8-10.5-4.5c-0.4-0.1-0.5-0.5-0.4-0.8c0.1-0.3,0.4-0.5,0.7-0.5
	c4.2,0.7,7.1,2.2,10.9,4.6c0.3,0.2,0.4,0.6,0.2,0.9c0,0,0,0,0,0c-0.2,0.2-0.4,0.3-0.6,0.3H468.2z"/>
<path class="st16" d="M466.9,465.8c-0.7-0.9-1.8-1.6-2.9-1.9c-0.3-0.1-0.5-0.5-0.4-0.8c0.1-0.3,0.5-0.5,0.8-0.4l0,0
	c1.4,0.4,2.7,1.2,3.6,2.4c0.2,0.3,0.1,0.7-0.2,0.9c0,0,0,0,0,0c-0.1,0.1-0.3,0.1-0.4,0.1C467.2,466.1,467,465.9,466.9,465.8z"/>
</svg>
