<?xml version="1.0" encoding="utf-8"?>
<!-- Generator: Adobe Illustrator 24.0.3, SVG Export Plug-In . SVG Version: 6.00 Build 0)  -->
<svg version="1.1" id="Layer_1" xmlns="http://www.w3.org/2000/svg" xmlns:xlink="http://www.w3.org/1999/xlink" x="0px" y="0px"
	 viewBox="0 0 1074.4 584.2" style="enable-background:new 0 0 1074.4 584.2;" xml:space="preserve">
<style type="text/css">
	.st0{fill:#F2F2F2;}
	.st1{fill:#57B894;}
	.st2{fill:#F0643B;}
	.st3{fill:none;stroke:#3F3D56;stroke-miterlimit:10;}
	.st4{fill:#3F3D56;}
	.st5{fill:#8F5A39;enable-background:new    ;}
	.st6{fill:#2F2E41;}
	.st7{fill:#FFFFFF;}
	.st8{opacity:0.3;fill:#F0643B;enable-background:new    ;}
	.st9{fill:#8F5A39;}
	.st10{fill:#F7B4B6;}
	.st11{fill:#EF9A9A;}
	.st12{fill:#FFCDD2;}
	.st13{fill:#FFEBEE;}
	.st14{fill:#CA0000;}
	.st15{fill:#4E342E;}
	.st16{fill:#F70508;}
	.st17{fill:#E57373;}
</style>
<ellipse class="st0" cx="540.6" cy="549.3" rx="527.5" ry="34.9"/>
<path class="st1" d="M520.4,167c-85.9,0-147.7,55.1-147.7,183.8c0,145.8,61.7,184.4,147.7,184.4s151.3-42.3,151.3-184.4
	C671.8,198.9,606.4,167,520.4,167L520.4,167z M521,486.8c-59.5,0-90.6-34.9-90.6-135.9c0-89.1,32.4-136.1,91.9-136.1
	s91.9,30.9,91.9,136.1C614.2,449.3,580.5,486.8,521,486.8z"/>
<path class="st2" d="M321.3,433.5h-35.5V328.9c0-11.6-9.4-21-21-21h-8.3c-11.6,0-21,9.4-21,21v104.6H135.3c-6.6,0-12-5.4-12-12
	c0-1.9,0.5-3.9,1.4-5.6l106.1-200.8c5.4-10.2,1.5-22.9-8.7-28.3c-0.3-0.1-0.6-0.3-0.8-0.4l-6.3-3c-10.1-4.8-22.2-0.8-27.4,9.1
	l-129.4,242c-2.2,4.1-3.4,8.7-3.4,13.4c0,15.7,12.7,28.4,28.4,28.4h152.3v66.2c0,13.9,11.2,25.1,25.1,25.1s25.1-11.2,25.1-25.1
	v-66.2h35.5c11.8,0,21.4-9.6,21.4-21.4S333.2,433.5,321.3,433.5L321.3,433.5z M979.3,433.5h-35.5V328.9c0-11.6-9.4-21-21-21h-8.3
	c-11.6,0-21,9.4-21,21v104.6H793.3c-6.6,0-12-5.4-12-12c0-1.9,0.5-3.9,1.4-5.6l106.1-200.8c5.4-10.2,1.5-22.9-8.7-28.3
	c-0.3-0.1-0.6-0.3-0.8-0.4l-6.3-3c-10.1-4.8-22.2-0.8-27.4,9.1l-129.4,242c-2.2,4.1-3.4,8.7-3.4,13.4c0,15.7,12.7,28.4,28.4,28.4
	h152.3v66.2c0,13.9,11.2,25.1,25.1,25.1c13.9,0,25.1-11.2,25.1-25.1v-66.2h35.5c11.8,0,21.4-9.6,21.4-21.4S991.2,433.5,979.3,433.5
	L979.3,433.5z"/>
<path class="st3" d="M331.1,421.3h-35.5V316.6c0-11.6-9.4-21-21-21h-8.3c-11.6,0-21,9.4-21,21v104.6H145.1c-6.6,0-12-5.4-12-12
	c0-1.9,0.5-3.9,1.4-5.6l106.1-200.8c5.4-10.2,1.5-22.9-8.7-28.3c-0.3-0.1-0.6-0.3-0.8-0.4l-6.3-3c-10.1-4.8-22.2-0.8-27.4,9.1
	L68,422.3c-2.2,4.1-3.4,8.7-3.4,13.4c0,15.7,12.7,28.4,28.4,28.4h152.3v66.2c0,13.9,11.2,25.1,25.1,25.1s25.1-11.2,25.1-25.1v-66.2
	H331c11.8,0,21.4-9.6,21.4-21.4S343,421.3,331.1,421.3z M997.7,421.3h-35.5V316.6c0-11.6-9.4-21-21-21h-8.3c-11.6,0-21,9.4-21,21
	v104.6H811.7c-6.6,0-12-5.4-12-12c0-1.9,0.5-3.9,1.4-5.6l106.1-200.8c5.4-10.2,1.5-22.9-8.7-28.3c-0.3-0.1-0.6-0.3-0.8-0.4l-6.3-3
	c-10.1-4.8-22.2-0.8-27.4,9.1l-129.4,242c-2.2,4.1-3.4,8.7-3.4,13.4c0,15.7,12.7,28.4,28.4,28.4h152.3v66.2
	c0,13.9,11.2,25.1,25.1,25.1c13.9,0,25.1-11.2,25.1-25.1V464h35.5c11.8,0,21.4-9.6,21.4-21.4S1009.5,421.3,997.7,421.3L997.7,421.3z
	 M540,156c-85.9,0-147.6,55.1-147.6,183.8c0,145.8,61.7,184.4,147.6,184.4s151.3-42.3,151.3-184.4C691.4,187.8,626,156,540,156z
	 M540.6,475.8c-59.5,0-90.6-34.9-90.6-135.9c0-89.1,32.4-136.1,91.9-136.1s91.9,30.9,91.9,136.1
	C633.8,438.3,600.1,475.8,540.6,475.8z"/>
<path class="st4" d="M576.2,184.2c-0.8,3.2-4.1,5.8-7.8,7.5c-7.8,3.8-17.4,4.9-26.8,5.3c-2.4,0.1-4.8,0.1-7.1-0.1
	c-4.6-0.4-8.9-2.4-12.2-5.6c-0.8-0.5-1-1.5-0.5-2.3c0.1-0.2,0.3-0.4,0.5-0.5c5-5.5,13.3-8.8,21.6-11.2c6.3-1.8,17.4-6.6,24.3-5.9
	C574.9,171.9,577.2,180.2,576.2,184.2z"/>
<path class="st5" d="M576.2,184.2c-0.8,3.2-4.1,5.8-7.8,7.5c-7.8,3.8-17.4,4.9-26.8,5.3c-2.4,0.1-4.8,0.1-7.1-0.1
	c-4.6-0.4-8.9-2.4-12.2-5.6c-0.8-0.5-1-1.5-0.5-2.3c0.1-0.2,0.3-0.4,0.5-0.5c5-5.5,13.3-8.8,21.6-11.2c6.3-1.8,17.4-6.6,24.3-5.9
	C574.9,171.9,577.2,180.2,576.2,184.2z"/>
<path class="st1" d="M1006.9,419.5c10.8,3.9,22.7-1.6,26.7-12.4c3.9-10.8-1.6-22.7-12.4-26.7c-3.7-1.3-7.6-1.6-11.5-0.8l0.5,10.7
	l-5.1-9.2c-5,2.3-8.8,6.6-10.7,11.7c-0.7,1.8-1.1,3.7-1.2,5.6C992.6,407.8,998.1,416.4,1006.9,419.5L1006.9,419.5z"/>
<path class="st3" d="M1031.9,543.8c-1.8-9.1,6-17.2,13.6-22.4s16.6-10.4,19.2-19.3c3.8-12.8-7.4-24.5-16.1-34.6
	c-6.5-7.5-12-15.7-16.5-24.6c-1.8-3.5-3.5-7.2-4-11.2c-0.7-5.7,1.1-11.3,3-16.7c6.1-18,12.7-35.9,19.6-53.6 M1007.7,416.8
	c10.8,3.9,22.7-1.6,26.7-12.4c3.9-10.8-1.6-22.7-12.4-26.7c-3.7-1.3-7.6-1.6-11.5-0.8l0.5,10.7l-5.1-9.2c-5,2.3-8.8,6.6-10.7,11.7
	c-0.7,1.8-1.1,3.7-1.2,5.6C993.4,405,999,413.6,1007.7,416.8L1007.7,416.8z"/>
<path class="st1" d="M1029.4,357.6c2.4-6.7,8.1-11.6,15-13.2l1.7,10.2l3.2-10.7c11.5,0.2,20.7,9.6,20.5,21.1s-9.6,20.7-21.1,20.5
	s-20.7-9.6-20.5-21.1C1028.2,362.1,1028.6,359.8,1029.4,357.6L1029.4,357.6z"/>
<path class="st3" d="M1030.5,353.9c2.4-6.7,8.1-11.6,15-13.2l1.7,10.2l3.2-10.7c11.5,0.2,20.7,9.6,20.5,21.1s-9.6,20.7-21.1,20.5
	s-20.7-9.6-20.5-21.1C1029.3,358.4,1029.8,356.1,1030.5,353.9L1030.5,353.9z"/>
<path class="st1" d="M1045,467.6c10.8,3.9,22.7-1.7,26.7-12.5c3.3-9.1-0.1-19.3-8.2-24.6l-2.4,8.2l-1.7-10.3h-0.1
	c-10.8-4-22.7,1.6-26.7,12.4S1034.2,463.5,1045,467.6C1044.9,467.6,1044.9,467.6,1045,467.6L1045,467.6z"/>
<path class="st3" d="M1046,463.9c10.8,3.9,22.7-1.7,26.7-12.5c3.3-9.1-0.1-19.3-8.2-24.6l-2.4,8.2l-1.7-10.3h-0.1
	c-10.8-3.9-22.7,1.7-26.7,12.5S1035.2,460,1046,463.9L1046,463.9z"/>
<path class="st1" d="M1023.3,502.2c2,11.3,12.8,18.9,24.1,16.9s18.9-12.8,16.9-24.1s-12.8-18.9-24.1-16.9c-5.1,0.9-9.7,3.7-12.9,7.8
	l9.3,14l-12.7-7.4C1023,495.6,1022.7,498.9,1023.3,502.2L1023.3,502.2z"/>
<path class="st3" d="M1024.2,499.4c2,11.3,12.8,18.9,24.1,16.9s18.9-12.8,16.9-24.1s-12.8-18.9-24.1-16.9c-5.1,0.9-9.7,3.7-12.9,7.8
	l9.3,14l-12.7-7.4C1023.8,492.8,1023.6,496.2,1024.2,499.4L1024.2,499.4z"/>
<path class="st1" d="M9,470.2c7.1,2.6,14.9-1.1,17.5-8.2s-1.1-14.9-8.2-17.5c-2.4-0.9-5-1.1-7.5-0.5l0.3,7l-3.3-6
	c-3.3,1.5-5.8,4.3-7,7.7c-0.4,1.2-0.7,2.4-0.8,3.7C-0.4,462.5,3.3,468.2,9,470.2z"/>
<path class="st3" d="M25.5,551.9c-1.2-6,3.9-11.3,8.9-14.7s10.9-6.8,12.6-12.7c2.5-8.4-4.9-16.1-10.6-22.8
	c-4.2-4.9-7.9-10.3-10.9-16.1c-1.3-2.3-2.2-4.8-2.6-7.3c-0.5-3.7,0.7-7.4,2-11c4-11.8,8.3-23.6,12.9-35.2 M9.6,468.4
	c7.1,2.6,14.9-1.1,17.5-8.2s-1.1-14.9-8.2-17.5c-2.4-0.9-5-1.1-7.5-0.5l0.3,7l-3.3-6c-3.3,1.5-5.8,4.3-7,7.7
	c-0.4,1.2-0.7,2.4-0.8,3.7C0.2,460.7,3.8,466.4,9.6,468.4z"/>
<path class="st1" d="M23.8,429.5c1.6-4.4,5.3-7.6,9.8-8.7l1.1,6.7l2.1-7c7.6,0.1,13.6,6.3,13.5,13.9S44,448,36.5,447.9
	S22.9,441.6,23,434C23,432.5,23.3,431,23.8,429.5z"/>
<path class="st3" d="M24.6,427.1c1.6-4.4,5.3-7.6,9.8-8.7l1.1,6.7l2.1-7c7.6,0.1,13.6,6.3,13.5,13.9s-6.3,13.6-13.9,13.5
	s-13.6-6.3-13.5-13.9C23.8,430.1,24,428.6,24.6,427.1z"/>
<path class="st1" d="M34.1,501.8c7.1,2.6,14.9-1.1,17.5-8.2c2.2-6-0.1-12.7-5.4-16.1l-1.6,5.4l-1.1-6.8c-7.1-2.6-14.9,1.1-17.5,8.2
	C23.3,491.4,27,499.2,34.1,501.8z"/>
<path class="st3" d="M34.7,499.4c7.1,2.6,14.9-1.1,17.5-8.2c2.2-6-0.1-12.7-5.4-16.1l-1.6,5.4l-1.1-6.8c-7.1-2.6-14.9,1.1-17.5,8.2
	C23.9,489,27.6,496.8,34.7,499.4z"/>
<path class="st1" d="M19.8,524.5c1.3,7.4,8.4,12.4,15.8,11.1c7.4-1.3,12.4-8.4,11.1-15.8s-8.4-12.4-15.8-11.1
	c-3.4,0.6-6.4,2.4-8.5,5.1l6.1,9.2l-8.3-4.9C19.6,520.2,19.4,522.4,19.8,524.5z"/>
<path class="st3" d="M20.4,522.7c1.3,7.4,8.4,12.4,15.8,11.1c7.4-1.3,12.4-8.4,11.1-15.8c-1.3-7.4-8.4-12.4-15.8-11.1
	c-3.4,0.6-6.4,2.4-8.5,5.1l6.1,9.2l-8.3-4.9C20.1,518.4,20,520.6,20.4,522.7z"/>
<ellipse class="st6" cx="480.9" cy="319.1" rx="17" ry="22"/>
<ellipse class="st6" cx="573.4" cy="319.6" rx="17" ry="22"/>
<path class="st6" d="M560.4,384.6c0,9.9-13.9,18-31,18s-31-8.1-31-18c0-8.6,10.4-15.8,24.3-17.6c2.2-0.3,4.4-0.4,6.7-0.4
	c3.7,0,7.5,0.4,11.1,1.2C552.2,370.4,560.4,377,560.4,384.6z"/>
<ellipse class="st3" cx="484.9" cy="314.1" rx="17" ry="22"/>
<ellipse class="st3" cx="577.4" cy="314.6" rx="17" ry="22"/>
<ellipse class="st3" cx="533.4" cy="379.6" rx="31" ry="18"/>
<path class="st7" d="M540.9,369.3c0,1.3-0.5,2.5-1.3,3.4s-2,1.4-3.2,1.4h-10c-2.6-0.1-4.6-2.2-4.5-4.8c0-1,0.3-1.9,0.8-2.7
	c2.2-0.3,4.4-0.5,6.7-0.5c3.7,0,7.5,0.4,11.1,1.3C540.8,368,540.9,368.7,540.9,369.3L540.9,369.3z"/>
<circle class="st7" cx="484.9" cy="308.1" r="5"/>
<circle class="st7" cx="577.9" cy="308.1" r="5"/>
<circle class="st8" cx="582.9" cy="355.1" r="5"/>
<circle class="st8" cx="460.9" cy="355.1" r="5"/>
<g>
	<g>
		<ellipse class="st9" cx="703.6" cy="503.2" rx="87" ry="13"/>
		<g>
			<path class="st10" d="M628.6,412.2c-3.7,1.8-6.9,6.5-5.1,13.1c10.1,7.1,24,15,40.4,20.6c16.4,5.6,29.8-17.3,3.8-25.6
				C657.9,417.2,643.8,413.5,628.6,412.2z"/>
			<path class="st11" d="M628.6,412.2c0,0-2.3,2.9-3.6,6.1c-1.1,2.7-1.5,6.9-1.5,6.9c-6.6-4.7-7.8-6.9-1.3-7.5
				C619.9,416.6,613.5,411.9,628.6,412.2z"/>
		</g>
		<g>
			<path class="st10" d="M771.8,402.4c4,0.9,8.2,4.7,8,11.5c-8.2,9.3-19.9,20.2-34.5,29.4c-14.6,9.2-33-9.9-9.7-24
				C744.5,414,757.2,407.1,771.8,402.4z"/>
			<path class="st11" d="M771.8,402.4c0,0,2.9,2.3,4.9,5.1c1.7,2.4,3.1,6.4,3.1,6.4c5.4-6.1,5.9-8.5-0.5-7.6
				C781.2,404.6,786.3,398.5,771.8,402.4z"/>
		</g>
		<g>
			<g>
				<path class="st10" d="M683.5,502.9c-21.7,5.9-43.5-1.3-46.8-18.7c-0.6-3.1,7.1-8.7,11.5-8.2c9,5.1,24.9,10.9,30.2,10.9
					C697.7,486.8,705.2,497,683.5,502.9z"/>
				<path class="st11" d="M636.6,484.2c2.5-4.1,7.1-7,11.5-8.2c-9.6-6.3-8.8-2.9-7.8,0.2C638.6,474.5,635.1,470.5,636.6,484.2z"/>
			</g>
			<g>
				<path class="st10" d="M728.5,502.9c21.7,5.9,43.5-1.3,46.8-18.7c0.6-3.1-7.1-8.7-11.5-8.2c-9,5.1-24.9,10.9-30.2,10.9
					C714.2,486.8,706.7,497,728.5,502.9z"/>
				<path class="st11" d="M775.3,484.2c-2.5-4.1-7.1-7-11.5-8.2c9.6-6.3,8.8-2.9,7.8,0.2C773.3,474.5,776.8,470.5,775.3,484.2z"/>
			</g>
		</g>
		<path class="st12" d="M704.2,504.9c-104.7,0-4.3-120.1,3.2-120.1C708.3,385.9,808.4,504.9,704.2,504.9z"/>
		<path class="st13" d="M722.3,445.2c12.9,11.3,22.1,48.1-18.1,48.1c-40.2,0-31-36.8-18.1-48.1c5.3-4.7,12.4-6.8,18.1-6.8
			C709.9,438.3,717,440.5,722.3,445.2z"/>
		<ellipse class="st10" cx="704.2" cy="414.6" rx="30.7" ry="18.7"/>
		<g>
			<g>
				<path class="st12" d="M680.5,336.6c-3.9-4.8-9.5-9-19.9-11.8c-8.2-2.2-10.7-6-14-4.5c-1.9,0.9-2.2,3.1-3.4,7.2
					c-3.6,12.4-11.2,21-8.2,35.7c1.9,9.6,9.1,16.1,23.9,10.9C668.6,370.9,699.9,360.5,680.5,336.6z"/>
			</g>
			<g>
				<path class="st10" d="M659.6,329c-8.6-2.4-8.7-5.3-11-4.2c-2.3,1.1-1,6.3-5,15.2c-5.9,12.9-1.1,37.7,18.8,27.5
					C677.8,359.6,674.3,333.1,659.6,329z"/>
			</g>
			<g>
				<g>
					<path class="st12" d="M727.8,336.6c3.9-4.8,9.5-9,19.9-11.8c8.2-2.2,10.7-6,14-4.5c1.9,0.9,2.2,3.1,3.4,7.2
						c3.6,12.4,11.2,21,8.2,35.7c-1.9,9.6-9.1,16.1-23.9,10.9C739.8,370.9,708.4,360.5,727.8,336.6z"/>
				</g>
				<g>
					<path class="st10" d="M748.7,329c8.6-2.4,8.7-5.3,11-4.2c2.3,1.1,1,6.3,5,15.2c5.9,12.9,1.1,37.7-18.8,27.5
						C730.5,359.6,734,333.1,748.7,329z"/>
				</g>
			</g>
		</g>
		<path class="st12" d="M646.4,412.9c-9.4-12.5-16-70.6,57.9-70.6s66.4,61.6,58.2,70.6C743.9,433.3,663.4,435.5,646.4,412.9z"/>
		<g>
			<g>
				<path class="st11" d="M677.9,399.9c0,2.7-3.8,4.9-8.4,4.9s-8.4-2.2-8.4-4.9c0-2.7,3.8-4.9,8.4-4.9S677.9,397.2,677.9,399.9z"/>
			</g>
			<g>
				<path class="st11" d="M747.2,399.9c0,2.7-3.8,4.9-8.4,4.9s-8.4-2.2-8.4-4.9c0-2.7,3.8-4.9,8.4-4.9S747.2,397.2,747.2,399.9z"/>
			</g>
		</g>
		<path class="st12" d="M680,344.7c19.1-11.8,44.2-19.3,31.9-3.5c0,0,14.2-4.9,6.5,2.9C711.1,351.5,680,344.7,680,344.7z"/>
		<g>
			<path class="st14" d="M717.6,419.3c0,2.2-2.4,4.6-5.8,6.1c-0.1,0.1-0.3,0.1-0.4,0.2c-2.2,0.9-4.8,1.5-7.4,1.5
				c-2.3,0-4.6-0.5-6.6-1.4c-0.1,0-0.2-0.1-0.3-0.1c-3.7-1.6-6.4-4.4-6.4-6.8c0-3.8,6.6-5.3,13.4-5.3
				C710.8,413.5,717.6,415.5,717.6,419.3z"/>
			<g>
				<path class="st15" d="M734.7,386.4c1.6-0.2,4.8-7.7,5.2-8.8s0-1.1-0.8-0.5s-3.7,3-5.3,3.1c-1.6,0-8.5-4.8-10.9-4.3
					c-3.2,0.7-6.9,10.1-7.3,11c-0.3,0.9,0.8,1.3,1.4,0.4c0.7-0.9,5.3-8.3,6.6-8.2C725,379.1,733.2,386.6,734.7,386.4z"/>
				<path class="st15" d="M684.6,379c1.3,0,5.9,7.3,6.6,8.2c0.7,0.9,1.8,0.5,1.4-0.4c-0.3-0.9-4.1-10.4-7.3-11
					c-2.3-0.5-9.3,4.3-10.9,4.3c-1.6,0-4.5-2.5-5.3-3.1s-1.2-0.5-0.8,0.5c0.4,1,3.7,8.6,5.2,8.8C675.1,386.6,683.3,379.1,684.6,379z
					"/>
			</g>
			<path class="st16" d="M711.4,425.6c-2.2,0.9-4.8,1.5-7.4,1.5c-2.3,0-4.6-0.5-6.6-1.4c1-1.8,3.8-3.2,7.1-3.2
				C707.6,422.5,710.3,423.8,711.4,425.6z"/>
			<g>
				<path class="st17" d="M689.5,417.8c0.6,4.8,6.8,9.2,10.8,10.2c7.7,2,17-2.4,19.4-10.1c0.2-0.6-0.8-1.1-1.1-0.5
					c-3.6,7.2-11.2,10.7-18.9,8.5c-3.7-1.1-7.7-3.9-9.7-8.2C689.8,417.5,689.5,417.5,689.5,417.8L689.5,417.8z"/>
			</g>
			<path class="st7" d="M715.4,416.7c0,2.5-5.1,4.5-11.4,4.5c-6.3,0-11.4-2-11.4-4.5c0-2.5,5.1-4.5,11.4-4.5
				C710.3,412.2,715.4,414.2,715.4,416.7z"/>
			<path class="st11" d="M704.2,389.1c-8,0-20.3,8-20.3,20.8c0,5.2,3.5,9.3,8.3,9.3s5.9-1.9,12-1.9c6.1,0,7.2,1.9,12,1.9
				s8.3-4.1,8.3-9.3C724.5,397.1,712.2,389.1,704.2,389.1z"/>
			<path class="st17" d="M697.7,397.9c2.3,0.7,3.4,4,2.4,7.5c-1,3.4-3.7,5.7-6.1,5c-2.3-0.7-3.4-4-2.4-7.5
				C692.6,399.5,695.3,397.2,697.7,397.9z"/>
			<path class="st17" d="M710.6,397.9c-2.3,0.7-3.4,4-2.4,7.5c1,3.4,3.7,5.7,6.1,5c2.3-0.7,3.4-4,2.4-7.5
				C715.7,399.5,713,397.2,710.6,397.9z"/>
			<path class="st17" d="M725.9,411.8c-0.4-0.6-1.1-1.4-2-1.5c-0.7-0.1-1.5,0.7-0.8,1.3c0.3,0.2,0.6,0.4,1,0.6
				c-2.1,2.9-5.5,5-9.1,5.7c-3.7,0.7-7-1.1-10.7-1.1c-0.1,0-0.1,0-0.2,0c-0.1,0-0.1,0-0.2,0c-3.7,0-7,1.8-10.7,1.1
				c-3.7-0.7-7-2.8-9.1-5.7c0.3-0.2,0.7-0.4,1-0.6c0.7-0.5-0.1-1.4-0.8-1.3c-0.8,0.1-1.5,0.9-2,1.5c-0.4,0.7-0.6,1.4-0.5,2.2
				c0,0.4,0.6,0.5,0.7,0.1c0.2-0.5,0.5-1,0.9-1.4c1,2.7,2.7,4.8,5.6,6.1c5.1,2.3,9.8-0.9,15-0.7c5.2-0.2,9.9,2.9,15,0.7
				c2.9-1.3,4.6-3.4,5.6-6.1c0.4,0.4,0.7,0.9,0.9,1.4c0.1,0.4,0.7,0.3,0.7-0.1C726.5,413.3,726.4,412.5,725.9,411.8z"/>
		</g>
		<path class="st9" d="M735.4,490.7c-0.3-2.3,1.4-4.4,1.5-6.7c0.4-7.6-18.4-14.1-26.5-6.6c-2.1,1.9-3.5,4.6-5.8,6.2
			c-8.7,6.3-16-5-24.7-1.7c-4.8,1.9-7.2,7.8-12,9.6c-6.6,2.5-18.2-2.6-20.9,4.3c-1.1,2.9,0.8,6.2,3.5,7.6c3.3,1.8,7,1.4,10.6,1.4
			c4.3,0,8.6,0.6,12.9,0.6c3.6,0.1,8-0.8,11.5,0c2.1,0.5,38.8,13.2,50-3.6C739.2,496.5,735.6,493.1,735.4,490.7z M684.8,491.6
			c-6.8-0.2-7-7.8,1.7-4.5C688.7,487.9,689,491.6,684.8,491.6z M726.4,490.2c-4.8,4.4-13.2,3.2-15.2,0.1c-3.4-5.4,5.5-8.7,9.3-9.1
			C725.4,480.7,731,486,726.4,490.2z"/>
		<path class="st9" d="M706.8,471c-3-2.6-8.7,0.7-10.4,3.8c-1.4,2.7,0,6.7,3.5,6.5C705,481.1,710.9,474.5,706.8,471z"/>
		<path class="st9" d="M765.7,493.7c-0.3-1-0.7-2.1-1.6-2.7c-4.2-2.9-7.8,5.1-12.3,4.2c-16.7-3.5-1.5,13.9-25.1,16.2l4.9,0.9
			C746,514.3,769.2,507.7,765.7,493.7z"/>
		<path class="st9" d="M684.2,442.2c1.3,1.8,0.3,3.4-4,15.8c2.7-1.1,8.3,1.9,4.2,10.6c-7.5,15.8-19,6.5-20.5-3.9
			C662.7,455.7,679.7,435.8,684.2,442.2z"/>
		<path class="st9" d="M737.8,467.6c5.7-4.6-2.6-25.5-11.9-24.2C717,444.6,728.9,474.6,737.8,467.6z"/>
		<path class="st9" d="M714.4,453.9c2,3.9,6.2,0.1,1.5-6.9C714,444.2,711.2,447.6,714.4,453.9z"/>
		<path class="st9" d="M659.5,372.8c1.5,0.4,1.6,0,16.7-10c-4,9.9,6.3,5,14.1-3.3c4.7-5,3.3-13.2-6.8-11.2
			C662.8,352.3,653.8,371.2,659.5,372.8z"/>
		<path class="st9" d="M733.2,333.7c10.8,1.5,25.3-11.1,14-11.2C739.2,322.4,725,332.6,733.2,333.7z"/>
		<path class="st9" d="M726.5,339.5c2.3,0.8,5.6-3.8,2.5-5C726,333.3,723.8,338.6,726.5,339.5z"/>
	</g>
	<path class="st9" d="M801.1,366.1c-4.6,5.7-10.8,8.3-13.9,5.8c-3.1-2.5-2-9.2,2.6-14.9c4.6-5.7,10.8-8.3,13.9-5.8
		C806.8,353.7,805.6,360.3,801.1,366.1z"/>
	<path class="st9" d="M800.5,383.7c-2.3,2.9-5.7,4.1-7.5,2.6c-1.8-1.5-1.4-5,0.9-7.9c2.3-2.9,5.7-4.1,7.5-2.6
		C803.2,377.2,802.8,380.8,800.5,383.7z"/>
	<path class="st9" d="M826.6,380.8c-1.9,2.3-4.6,3.3-6,2.1s-1.1-4,0.7-6.4c1.9-2.3,4.6-3.3,6-2.1
		C828.8,375.7,828.4,378.5,826.6,380.8z"/>
	<ellipse transform="matrix(0.7818 -0.6236 0.6236 0.7818 -108.3149 476.5273)" class="st9" cx="626.6" cy="393" rx="6" ry="9.6"/>
	<path class="st9" d="M599,395c1.9,2.3,4.6,3.3,6,2.1c1.5-1.2,1.1-4-0.7-6.4c-1.9-2.3-4.6-3.3-6-2.1
		C596.8,389.8,597.2,392.7,599,395z"/>
</g>
</svg>
