<svg xmlns="http://www.w3.org/2000/svg" xmlns:xlink="http://www.w3.org/1999/xlink" viewBox="0 0 870 138"><defs><style>.cls-1{isolation:isolate;}.cls-2{fill:#86ba90;}.cls-2,.cls-3,.cls-7{stroke:#42210b;}.cls-2,.cls-3{stroke-width:4px;}.cls-3,.cls-6{fill:#9ec8a6;}.cls-4{fill:#ffd7ba;}.cls-5{fill:#42210b;}.cls-14,.cls-7{fill:#67524e;}.cls-7{stroke-width:5px;}.cls-8{fill:#734c00;}.cls-12,.cls-16,.cls-9{mix-blend-mode:multiply;}.cls-9{opacity:0.54;}.cls-10{fill:#bdaa75;}.cls-11{fill:#3b2200;}.cls-12{opacity:0.58;}.cls-13{fill:#85693d;}.cls-15{fill:url(#radial-gradient);}.cls-16{fill:#c9b99d;opacity:0.49;}.cls-17{fill:#891518;}.cls-18{fill:#754c24;}.cls-19{fill:#b66f29;}.cls-20{fill:#333;}.cls-21{fill:#f7931e;}.cls-22{fill:#ccc;}.cls-23{fill:#fff;}.cls-24{fill:#de2321;}.cls-25{fill:#b31a17;}.cls-26{fill:#1a1a1a;}</style><radialGradient id="radial-gradient" cx="501.51" cy="46.35" r="16.04" gradientTransform="matrix(1.01, -0.18, 0.18, 1.01, -8.53, 68.43)" gradientUnits="userSpaceOnUse"><stop offset="0" stop-color="#fff8f0"/><stop offset="1" stop-color="#f0e2d3"/></radialGradient></defs><g class="cls-1"><g id="Layer_1" data-name="Layer 1"><path class="cls-2" d="M18.65,18.68h16.7v20.9h17.5v16.6H35.35v13.4c0,8,6.5,14.2,15,14.2h2.5v16.6h-2.5c-17,0-31.7-13.3-31.7-30.8V56.18h-8.3V39.58h8.3Z"/><path class="cls-3" d="M109.85,56.18V39.58h16.7v58.3h-16.7v-25h-25v25H68.15V18.68h16.7v37.5Z"/><path class="cls-3" d="M157.65,31.18V41a29.91,29.91,0,0,1,15-3.9h1.7v16.7h-1.7a14.83,14.83,0,0,0-15,14.9v29.2H141V31.18Z"/><path class="cls-3" d="M245.45,68.78a31.65,31.65,0,1,1-31.7-31.7A31.62,31.62,0,0,1,245.45,68.78Zm-46.6,0a15,15,0,0,0,29.9,0,15,15,0,1,0-29.9,0Z"/><path class="cls-3" d="M277,64.28l20.8-47.5,20.8,47.5L332,33.68l15,6.7-28.41,64.7-20.8-47.5L277,105.08l-28.4-64.7,15-6.7Z"/><polygon class="cls-4" points="358.49 96.09 353.77 113.61 340.07 109.91 353.18 61.1 370.4 88.35 378.75 57.22 405.76 99.94 393.78 107.54 384.06 92.2 375.71 123.35 358.49 96.09"/><path class="cls-5" d="M379.5,62.14,403,99.32l-8.6,5.46-11.08-17.5L375,118.42,357.75,91.16l-5.39,20-9.84-2.66L353.93,66l17.22,27.25,8.35-31.14M378,52.29l-2.36,8.82-6,22.31L357.31,63.89l-4.87-7.72L350.07,65l-11.41,42.48-1,3.85,3.86,1,9.83,2.66,3.87,1,1-3.87,3-11.19,12.34,19.54,4.88,7.73,2.37-8.83,6-22.32,6.2,9.79,2.14,3.38,3.38-2.14,8.6-5.46,3.38-2.14-2.14-3.38L382.88,60,378,52.29Z"/><path class="cls-4" d="M426.13,104.88a21.62,21.62,0,0,1-20.42-14.59L404,85.36a21.68,21.68,0,0,1,41-14.17l2.87,8.29-26.5,9.17a7.5,7.5,0,0,0,4.92,1.88h0a6.9,6.9,0,0,0,2.3-.39L431.91,89l4.69,13.53-3.36,1.17A21.93,21.93,0,0,1,426.13,104.88ZM424.38,71a7,7,0,0,0-2.26.38,7.39,7.39,0,0,0-3.89,3.16l8.79-3A7.08,7.08,0,0,0,424.38,71Z"/><path class="cls-5" d="M424.51,58.63a19.61,19.61,0,0,1,18.57,13.21l2.21,6.41L418,87.68a9.44,9.44,0,0,0,8.23,4.85,8.88,8.88,0,0,0,2.95-.5l1.47-.51,3.37,9.76-1.47.51a20,20,0,0,1-6.45,1.09A19.6,19.6,0,0,1,407.6,89.64l-1.71-4.93a19.6,19.6,0,0,1,12.14-25,19.86,19.86,0,0,1,6.48-1.09m-9.28,19,16.15-5.59a9.73,9.73,0,0,0-7-3.11,9,9,0,0,0-2.91.49,9.32,9.32,0,0,0-6.24,8.21m9.28-23v0h0A23.67,23.67,0,0,0,402.11,86L403.82,91a23.6,23.6,0,0,0,30.07,14.62l.19-.07,1.28-.44,3.78-1.31L437.83,100l-3.37-9.75-1.23-3.57L446.6,82l3.78-1.31-1.31-3.78-2.21-6.4a23.65,23.65,0,0,0-22.35-15.91Z"/><path class="cls-6" d="M485.78,90.17l1-4.28a17.66,17.66,0,0,1-2.06.12,19.54,19.54,0,0,1-4.53-.54,20,20,0,1,1,9.17-38.87,19.08,19.08,0,0,1,6.09,2.57l1-4.34,13.13,3.1-10.7,45.34Zm-1-30.63a6.49,6.49,0,0,0-1.48,12.81,6.75,6.75,0,0,0,1.54.18,6.43,6.43,0,0,0,6.29-5,6.53,6.53,0,0,0-6.35-8Z"/><path class="cls-5" d="M498,47.24l9.23,2.18-9.78,41.44-9.23-2.17,1.27-5.36a17,17,0,0,1-4.73.68,17.53,17.53,0,0,1-4.07-.49,18,18,0,0,1,4.12-35.46,18.32,18.32,0,0,1,4.13.48,17,17,0,0,1,7.78,4.11L498,47.24M484.83,74.53a8.49,8.49,0,0,0,1.9-16.76,8.74,8.74,0,0,0-2-.23,8.5,8.5,0,0,0-1.93,16.76,9,9,0,0,0,2,.23M495,42.43l-.88,3.71a21.74,21.74,0,0,0-4.29-1.49,22.12,22.12,0,0,0-5.05-.59A22,22,0,0,0,484.24,88l-.86,3.66,3.89.92,9.23,2.18,3.89.91.92-3.89,9.78-41.44.92-3.9-3.89-.92-9.23-2.17L495,42.43Zm-10.17,28.1a4.5,4.5,0,0,1-.06-9,4.7,4.7,0,0,1,1.05.12,4.52,4.52,0,0,1,3.35,5.44,4.43,4.43,0,0,1-4.34,3.43Z"/><path class="cls-7" d="M564.18,45.08a31.65,31.65,0,1,1,0,63.3,29.91,29.91,0,0,1-15-3.9v9.7H532.47V26.68h16.71V49A29.91,29.91,0,0,1,564.18,45.08Zm-15,31.7a15,15,0,1,0,15-15A14.9,14.9,0,0,0,549.18,76.78Z"/><path class="cls-7" d="M669.68,76.78A31.66,31.66,0,1,1,638,45.08,31.62,31.62,0,0,1,669.68,76.78Zm-46.6,0a15,15,0,0,0,29.9,0,15,15,0,1,0-29.9,0Z"/><path class="cls-7" d="M740.58,124.79l-41.7-50.31v31.4H682.17V28.68L723.88,79V47.58h16.7Z"/><path class="cls-7" d="M784.68,100.08h2.5v16.6h-2.5a31.55,31.55,0,0,1-31.61-31.6v-8.4a31.66,31.66,0,0,1,63.31,0v10.9H770A15.09,15.09,0,0,0,784.68,100.08Zm.1-38.4a15,15,0,0,0-13.8,9.2h27.5A15.15,15.15,0,0,0,784.78,61.68Z"/><path class="cls-7" d="M844.18,110.08a10,10,0,1,1,10-10A10,10,0,0,1,844.18,110.08Zm-8.31-83.4h16.61v58.4H835.87Z"/><path class="cls-8" d="M633.59,40.23c6.57,0,19.33.12,26.59,10.84,7.67,11.34,8.74,26.19,4.46,38.53-3,8.57-13.53,14.73-25.39,14.73a34.3,34.3,0,0,1-15.86-3.89c-17-8.84-18.68-25.19-15.47-37.69s12.54-22.52,25.22-22.52Zm0-.86h-.45c-12.21,0-22.43,9.08-26,23.15-1.31,5.08-2.34,12.79.18,20.7s7.76,13.82,15.72,18a35.26,35.26,0,0,0,16.25,4c12.29,0,23.07-6.29,26.2-15.3,4.6-13.27,2.85-28.32-4.57-39.29-7.59-11.22-20.9-11.22-27.29-11.22Z"/><g class="cls-9"><path class="cls-10" d="M660.18,51.07c-6.54-9.65-17.53-10.71-24.46-10.83,6.12.41,14.12,2.12,19.16,9.29,6.93,9.84,7.9,22.72,4,33.43S637,100,621.68,92.37c-10.24-5.13-14.32-13.18-15-21.19-.5,10.71,3.41,22.31,16.75,29.26,17,8.84,37,1.5,41.25-10.84S667.85,62.41,660.18,51.07Z"/></g><g class="cls-9"><path class="cls-10" d="M647.68,53.29a16.63,16.63,0,0,0,9.56-5.74c-7.59-7.42-18.45-7.32-24.1-7.32a22.94,22.94,0,0,0-14.59,5.21C623.57,50,635.62,56.07,647.68,53.29Z"/></g><path class="cls-11" d="M652.85,50.82A8,8,0,0,0,648,59.93c.72,2.86,3.25,4,4.65,2.68,2.49-2.32-2-3.4-2-3.4s.91-3.8,2.86-4.1c3.39-.54,4.11,2,5.71,3.57s4.47,1.25,4.11-1.07S660.6,47.92,652.85,50.82Z"/><g class="cls-12"><path class="cls-13" d="M612.9,51.61a35.39,35.39,0,0,0-5,11.14,42.2,42.2,0,0,0-1.23,7.59c5.2,1.34,12.12-3.09,12.24-9.7S616.29,52,612.9,51.61Z"/></g><path class="cls-14" d="M637.64,107.4a34,34,0,1,1,34.07-34A34,34,0,0,1,637.64,107.4Zm0-47.16a13.14,13.14,0,0,0-13.08,13.18A12.94,12.94,0,0,0,637.64,86.5a13.13,13.13,0,1,0,0-26.26Z"/><path class="cls-5" d="M637.64,41.34a32,32,0,1,1-32,32.08,32.09,32.09,0,0,1,32-32.08m0,47.16a15.13,15.13,0,1,0-15.08-15.08A15.07,15.07,0,0,0,637.64,88.5m0-51.16a36,36,0,1,0,36.07,36.08,36.07,36.07,0,0,0-36.07-36.08Zm0,47.16a11.13,11.13,0,0,1,0-22.26,11.18,11.18,0,0,1,11.17,11.18A11,11,0,0,1,637.64,84.5Z"/><path class="cls-15" d="M497.06,39.16a6.41,6.41,0,0,1-2-.37c-2.41-.82-3.78-2-4.06-3.58-.36-2,1.15-3.92,2.16-5-1.44-.21-3.84-.81-4.81-2.51-.68-1.21-.53-2.72.46-4.48a4.89,4.89,0,0,1,4.34-2.87c2.68,0,5.29,2.19,6.08,2.93l13.85-5.44c-.49-1.05-1.4-3.47-.34-5.29.79-1.36,2.48-2.06,5-2.06l.65,0c2.5.1,4,.83,4.59,2.16.81,2-.86,4.65-2,6.15a10.79,10.79,0,0,1,1.7-.13,4.65,4.65,0,0,1,3.92,1.52c.83,1.08,1,2.69.4,4.77-1,3.51-2.87,4.25-4.3,4.25-2.27,0-4.55-1.8-5.27-2.42L501.59,32c0,1.11-.12,4.3-1.76,6A3.69,3.69,0,0,1,497.06,39.16Z"/><path class="cls-5" d="M517.76,11l.63,0c8.89.37,1.34,8.58,1.34,8.58a12.31,12.31,0,0,1,3-.4c2.38,0,5.12.93,3.83,5.65-.8,3-2.28,3.89-3.81,3.89-2.51,0-5.15-2.48-5.15-2.48l-16.5,5.3s.4,7.07-4,7.07a5.87,5.87,0,0,1-1.84-.34c-7.93-2.7-.92-8.46-.92-8.46s-8.47-.26-5.05-6.36a4.36,4.36,0,0,1,3.9-2.61c3,0,6,3,6,3l14.66-5.76s-4.07-7.11,4-7.11m0-1c-2.73,0-4.57.78-5.45,2.31-1,1.76-.41,4,.11,5.26l-13.08,5.14c-1-.91-3.56-2.85-6.19-2.85A5.33,5.33,0,0,0,488.38,23c-1.08,1.92-1.24,3.59-.46,5,.88,1.57,2.76,2.28,4.26,2.61a6.06,6.06,0,0,0-1.68,4.71c.32,1.74,1.8,3.08,4.4,4a6.8,6.8,0,0,0,2.16.4,4.14,4.14,0,0,0,3.13-1.33c1.61-1.69,1.87-4.62,1.9-6l15.26-4.9c.94.77,3.15,2.36,5.38,2.36,1.6,0,3.74-.8,4.78-4.62.61-2.24.45-4-.48-5.2a5.1,5.1,0,0,0-4.32-1.72c-.22,0-.44,0-.65,0,1.08-1.63,2.16-3.9,1.4-5.73-.63-1.53-2.32-2.36-5-2.47l-.67,0Z"/><path class="cls-16" d="M518.41,17.43s5.61-9.65-3.15-8.1c-.42.08-.8.16-1.15.26,3.46,1.28,6.46,4.49,3.72,7.83,2.81,1.31,3.93,3.93,1.47,6-2,1.74-5.37.69-7.64.6-2-.08-10.86,5.45-11.94,7.28-2.05,3.48,4.31,5.26-3.74,9a8.34,8.34,0,0,0,2.53.62c6.68.75,4.27-7.83,4.27-7.83l15-8.73s8.06,4.8,8.45-3.31S518.41,17.43,518.41,17.43Z"/><path class="cls-17" d="M426.71,44.66a3.29,3.29,0,0,0-.45-1.63c-.73-1.23-14.71-7.63-14.71-7.63l-1.88,4.11,10.86,7.93,5.59-1.68Z"/><path class="cls-18" d="M408.64,51.56a13.44,13.44,0,0,1,1.48,2.76c.43,1.26.15,2.68.41,2.68.71,0,1-2.06,2.78-2.46,1.32-.3,2.27.68,2.66,2s.12,1.8-.25,1.94a.89.89,0,0,1-.76-.17s0,.67-.56.8-1.08-.51-1.08-.51-.13.88-.85,1-1.35-1-1.35-1a3.43,3.43,0,0,1-1,1,1.37,1.37,0,0,1-1.44-.46c-.21-.37.11-1.77,0-3a19.46,19.46,0,0,0-1.37-4.24Z"/><path class="cls-18" d="M420.44,47.46a13.64,13.64,0,0,1,1.48,2.77c.43,1.26.15,2.67.41,2.67.71,0,1-2,2.78-2.46,1.32-.3,2.27.69,2.66,2s.12,1.8-.25,1.94a.89.89,0,0,1-.76-.16s0,.66-.56.79-1.08-.5-1.08-.5-.13.87-.85,1-1.35-1-1.35-1a3.55,3.55,0,0,1-1,1,1.39,1.39,0,0,1-1.44-.46c-.21-.37.11-1.77,0-3a19.46,19.46,0,0,0-1.37-4.24Z"/><path class="cls-19" d="M403.74,52.92a17.56,17.56,0,0,1,1.89,3.51c.54,1.6.18,3.41.51,3.4.9,0,1.28-2.61,3.53-3.12,1.68-.38,2.89.87,3.39,2.49s.16,2.29-.32,2.47a1.11,1.11,0,0,1-1-.21s0,.84-.72,1-1.37-.65-1.37-.65-.16,1.12-1.08,1.33-1.72-1.22-1.72-1.22a4.41,4.41,0,0,1-1.22,1.27,1.73,1.73,0,0,1-1.82-.59c-.28-.47.13-2.25,0-3.84s-1.75-5.4-1.75-5.4Z"/><path class="cls-20" d="M408.68,26.08s-4.36-7.2-4.62-8.46,5.59,2.09,6.61.05-1.19-3.48-4.18-3.7-5.24.35-5.38,1.24,7.12,11.55,7.12,11.55Z"/><path d="M415.87,22.06s-.42-8.41-.05-9.64,3.93,4.49,5.79,3.18.61-3.63-1.92-5.24-4.78-2.18-5.32-1.46.78,13.54.78,13.54Z"/><path class="cls-18" d="M410.55,58.42a3.55,3.55,0,0,1,1.11,1.51c.23.74.41,1.69.41,1.69l-.29-.16a11.28,11.28,0,0,0-.4-1.46A10.5,10.5,0,0,0,410.55,58.42Z"/><path class="cls-18" d="M409.94,62.07a2.53,2.53,0,0,0-.28-1.59,3.16,3.16,0,0,0-1-1.28s.46.82.7,1.4a4.84,4.84,0,0,1,.28,1.22Z"/><path class="cls-18" d="M407.08,62.23a2.92,2.92,0,0,0-.06-.9,1.13,1.13,0,0,0-.36-.62,2.94,2.94,0,0,1,.23.66,2.26,2.26,0,0,1,0,.56Z"/><path class="cls-19" d="M416.91,49.26a16.93,16.93,0,0,1,1.89,3.52c.54,1.6.19,3.4.52,3.4.9,0,1.27-2.61,3.53-3.13,1.68-.38,2.88.87,3.38,2.5s.16,2.28-.32,2.46a1.11,1.11,0,0,1-1-.21s0,.84-.72,1-1.36-.64-1.36-.64-.17,1.12-1.09,1.32-1.71-1.21-1.71-1.21a4.41,4.41,0,0,1-1.22,1.27,1.22,1.22,0,0,1-1.65-.64,35.39,35.39,0,0,1-.13-3.8c-.09-1.59-1.75-5.39-1.75-5.39Z"/><path class="cls-18" d="M423.72,54.77a3.48,3.48,0,0,1,1.11,1.5c.23.75.41,1.7.41,1.7L425,57.8a10.91,10.91,0,0,0-.4-1.45A9.14,9.14,0,0,0,423.72,54.77Z"/><path class="cls-18" d="M423.12,58.42a2.6,2.6,0,0,0-.29-1.59,3,3,0,0,0-.95-1.28,15.08,15.08,0,0,1,.7,1.4,5.09,5.09,0,0,1,.29,1.22Z"/><path class="cls-18" d="M420.26,58.57a2.69,2.69,0,0,0-.07-.89,1.09,1.09,0,0,0-.35-.62,3.13,3.13,0,0,1,.22.66,2.57,2.57,0,0,1,0,.56Z"/><path class="cls-21" d="M396.28,35.78a25.07,25.07,0,0,0,5.85-2.43s-2.55-.43-2.57-1.19,4.21-1.12,4.14-1.72-4.59-1.29-4.59-1.29a4.37,4.37,0,0,1,2.71-1.37,4.87,4.87,0,0,1,2.77.22,8,8,0,0,0-2-1.77,21.68,21.68,0,0,0-3.27-1.51,7.4,7.4,0,0,1,5.21-.35,11.33,11.33,0,0,1,3.73,2.39s.66-4.24,2.5-5.64a3.36,3.36,0,0,1,3.37-.7s.56-1.58,1.85-1.89a2.73,2.73,0,0,1,2.82.55c.61.64,0,.87,0,.87a38.13,38.13,0,0,0,3.68,2.83c.28,0,.19,1,.59,1.07s3.39-2.18,3.39-2.18,7.54,3.23,7.6,3.56c.55,3.29-.48,8.22-3.43,12.51-.47.68-1.79,2.45-7.57,3a11.67,11.67,0,0,1-11.44-5.39,11,11,0,0,0,1.24,4.84c1.29,2.41,3.51,4.08,7.11,4.69,3.4.58,6.59-.92,6.9-.15s-3.54,6.6-13,8.83-13.66-.22-17.36-5.13a32.75,32.75,0,0,1-5.23-11.28l0-.79A20.17,20.17,0,0,0,396.28,35.78Z"/><path class="cls-22" d="M415.47,23.66a3.47,3.47,0,1,0,2.42-4.27A3.47,3.47,0,0,0,415.47,23.66Z"/><path d="M419.1,21.64a.84.84,0,0,0,1,.59.85.85,0,0,0,.59-1,.85.85,0,1,0-1.64.45Z"/><path class="cls-23" d="M410.41,28.07a4.52,4.52,0,1,0,3.15-5.57A4.54,4.54,0,0,0,410.41,28.07Z"/><path d="M415.14,25.44a1.1,1.1,0,0,0,1.36.77,1.11,1.11,0,1,0-.59-2.13A1.1,1.1,0,0,0,415.14,25.44Z"/><path class="cls-21" d="M422.54,22.86c-1-.27-5.84,4-6.38,6.28s.66,3,.66,3L423,23.85S422.8,22.93,422.54,22.86Z"/><path class="cls-24" d="M421.38,45.07A8.85,8.85,0,0,1,426.09,42a5.79,5.79,0,0,1,2,0,2.88,2.88,0,0,1,2.56.21,11.78,11.78,0,0,1,4.51,4.7c1.21,2.43,1.6,4.17,1.15,5.08a3.37,3.37,0,0,1-4.55,1.25c-2.58-1.24-5.06-8.59-5.06-8.59l-2.18.7Z"/><path class="cls-25" d="M428.33,41.92l-.23.09a7.26,7.26,0,0,1,3.1,2.78,24.34,24.34,0,0,1,2.36,4.81,19.71,19.71,0,0,0-2-4.91,9.1,9.1,0,0,0-3-2.83Z"/><path d="M427.5,24.64c2.84,2.55,6.86,2.69,9,.32s1.57-6.36-1.26-8.91-6.86-2.69-9-.32S424.67,22.09,427.5,24.64Z"/><path class="cls-20" d="M431.75,18.88c1.18.94,2.61,1.11,3.2.38s.12-2.1-1.06-3.05-2.61-1.11-3.21-.38S430.57,17.93,431.75,18.88Z"/><path class="cls-26" d="M385,35.19c-2.88-1.25-3.6-2.71-3.34-3.31s2.28.66,2.38.53-2.1-2.29-2.95-3.94c-1.17-2.29-.6-3.73-.38-3.79s1.86,2.76,2.07,2.66-.27-2.16,0-3.63,1.48-3.25,1.72-2.9.07,3,.47,3.44,1.1-2.74,4.8-3.14A5.78,5.78,0,0,1,396,26.62c.34,4.33-3.06,5.7-5.92,5.26-2.53-.39-3.66-3.27-3.45-3.52s1,.82,2.06.55c.76-.19,1.73-1.06.75-2.61-1.1-1.74-4.74-.26-4.34,3.58s5.58,6.4,6.14,6.53l0,.79C391.05,36.81,387.54,36.27,385,35.19Z"/></g></g></svg>